<?xml version="1.0" standalone="no"?>
<!DOCTYPE svg PUBLIC "-//W3C//DTD SVG 1.1//EN" "http://www.w3.org/Graphics/SVG/1.1/DTD/svg11.dtd" >
<svg xmlns="http://www.w3.org/2000/svg">
<metadata></metadata>
<defs>
<font id="textamedium" horiz-adv-x="595" >
<font-face units-per-em="1000" ascent="800" descent="-200" />
<missing-glyph horiz-adv-x="221" />
<glyph horiz-adv-x="0" />
<glyph horiz-adv-x="333" />
<glyph horiz-adv-x="0" />
<glyph horiz-adv-x="0" />
<glyph unicode="&#xd;" horiz-adv-x="105" />
<glyph unicode=" "  horiz-adv-x="221" />
<glyph unicode="&#x09;" horiz-adv-x="221" />
<glyph unicode="&#xa0;" horiz-adv-x="221" />
<glyph unicode="!" horiz-adv-x="212" d="M133 173h-55l-21 427h96zM54 46q0 23 15 38.5t37 15.5t38 -16t16 -38t-16 -38t-38 -16t-37 15.5t-15 38.5z" />
<glyph unicode="&#x22;" horiz-adv-x="320" d="M99 475h-49l19 209h74zM242 475h-48l18 209h75z" />
<glyph unicode="#" horiz-adv-x="620" d="M471 423h117l-11 -49h-117l-37 -166h115l-11 -50h-115l-33 -158h-53l34 158h-158l-34 -158h-53l34 158h-117l11 50h117l36 166h-114l10 49h115l35 160h52l-35 -160h158l34 160h54zM213 208h157l36 166h-158z" />
<glyph unicode="$" horiz-adv-x="510" d="M82 119q6 -6 17.5 -14.5t49 -24t78.5 -18.5v213q-99 31 -142.5 69.5t-43.5 104.5q0 69 49 112.5t137 50.5v104h59v-104q54 -4 96.5 -18.5t58.5 -27.5l16 -13l-43 -65q-45 40 -128 49v-194q104 -32 146.5 -74t42.5 -109q0 -71 -48.5 -118t-140.5 -55v-94h-59v94 q-57 4 -104 21.5t-65 33.5l-19 16zM125 450q0 -29 22.5 -49t79.5 -40v175q-47 -5 -74.5 -27t-27.5 -59zM391 157q0 34 -23 56t-82 43v-194q105 13 105 95z" />
<glyph unicode="%" horiz-adv-x="655" d="M170 613q60 0 95 -43.5t35 -106.5q0 -62 -35 -106.5t-95 -44.5t-95 44.5t-35 106.5q0 63 35 106.5t95 43.5zM603 600l-477 -600h-80l475 600h82zM170 554q-31 0 -47.5 -25t-16.5 -66t16.5 -66t47.5 -25t47.5 25t16.5 66t-16.5 66t-47.5 25zM485 293q60 0 95.5 -44 t35.5 -107q0 -62 -35.5 -106t-95.5 -44q-59 0 -94.5 44t-35.5 106q0 63 35.5 107t94.5 44zM485 234q-30 0 -47 -25t-17 -67q0 -39 17 -64.5t47 -25.5q31 0 47.5 25t16.5 65q0 42 -16.5 67t-47.5 25z" />
<glyph unicode="&#x26;" d="M540 266q-18 -90 -58 -152l114 -114h-114l-53 54q-69 -64 -169 -64q-101 0 -157 46.5t-56 117.5q0 58 32.5 96t90.5 70l-14 15q-57 57 -57 130q0 62 45 105t117 43q73 0 117.5 -40t44.5 -102q0 -60 -34.5 -98.5t-95.5 -69.5l135 -136q25 46 38 118zM179 464q0 -46 47 -94 l16 -16q49 25 75.5 50t26.5 60q0 38 -22.5 60t-60.5 22q-37 0 -59.5 -22t-22.5 -60zM258 58q72 0 122 47l-157 161q-44 -25 -66.5 -50t-22.5 -60q0 -44 36 -71t88 -27z" />
<glyph unicode="'" horiz-adv-x="176" d="M99 475h-49l19 209h74z" />
<glyph unicode="(" horiz-adv-x="264" d="M120 287q0 -225 128 -374l-49 -50q-161 173 -161 424q0 253 161 424l49 -50q-128 -149 -128 -374z" />
<glyph unicode=")" horiz-adv-x="265" d="M144 287q0 227 -127 374l49 50q160 -170 160 -424q0 -252 -160 -424l-49 50q127 147 127 374z" />
<glyph unicode="*" horiz-adv-x="387" d="M172 540l-129 20l23 65l114 -65l-19 132h66l-24 -133l118 66l23 -65l-132 -20l94 -95l-55 -39l-59 118l-59 -118l-53 39z" />
<glyph unicode="+" horiz-adv-x="512" d="M290 327h183v-66h-183v-180h-68v180h-183v66h183v188h68v-188z" />
<glyph unicode="," horiz-adv-x="206" d="M102 92q21 0 36 -15t15 -37v-7q0 -62 -33 -103.5t-91 -52.5l-13 44q69 17 76 70q-18 3 -30 16.5t-12 32.5q0 22 15 37t37 15z" />
<glyph unicode="-" horiz-adv-x="395" d="M57 262h280v-66h-280v66z" />
<glyph unicode="." horiz-adv-x="203" d="M102 -10q-22 0 -37 14.5t-15 35.5q0 22 15 37t37 15q21 0 36 -15t15 -37q0 -21 -15 -35.5t-36 -14.5z" />
<glyph unicode="/" horiz-adv-x="575" d="M21 -112l450 895h82l-448 -894z" />
<glyph unicode="0" horiz-adv-x="602" d="M301 -9q-118 0 -186.5 89t-68.5 219t68.5 218t186.5 88q119 0 187.5 -88t68.5 -218t-68.5 -219t-187.5 -89zM301 67q82 0 128 66.5t46 165.5q0 98 -46 164.5t-128 66.5t-128 -66.5t-46 -164.5q0 -99 46 -165.5t128 -66.5z" />
<glyph unicode="1" horiz-adv-x="300" d="M15 600h215v-600h-80v527h-135v73z" />
<glyph unicode="2" horiz-adv-x="495" d="M45 54l249 247q34 34 46.5 59t12.5 56q0 49 -33.5 81t-90.5 32q-20 0 -39.5 -5t-34 -11.5t-29 -16t-22.5 -16.5t-15.5 -13.5t-8.5 -7.5l-43 63q3 3 8.5 9t24.5 20t40.5 25t54.5 20t68 9q98 0 152 -51.5t54 -131.5q0 -85 -65 -150l-203 -199h281v-73h-407v54z" />
<glyph unicode="3" horiz-adv-x="493" d="M159 290v62l168 175h-276v73h383v-65l-175 -180h4q88 -4 135.5 -51t47.5 -126q0 -80 -57 -133.5t-157 -53.5q-38 0 -72 8.5t-55.5 21t-37.5 25t-23 20.5l-7 9l46 58q2 -3 6 -7.5t18 -16t29.5 -20.5t40.5 -16.5t52 -7.5q62 0 98.5 32.5t36.5 81.5q0 53 -35 82t-102 29h-68 z" />
<glyph unicode="4" horiz-adv-x="553" d="M23 199l335 401h63v-388h104v-72h-104v-140h-80v140h-318v59zM128 212h213v260l-198 -242l-15 -14v-4z" />
<glyph unicode="5" horiz-adv-x="485" d="M151 527l-5 -168q42 8 79 8q109 0 164.5 -49.5t55.5 -131.5q0 -87 -56.5 -141t-158.5 -54q-38 0 -71.5 8.5t-54.5 21t-37 25t-23 20.5l-7 9l46 58q2 -3 6 -7.5t18 -16t29.5 -20.5t40.5 -16.5t52 -7.5q62 0 98 32t36 88q0 50 -38.5 80t-106.5 30q-37 0 -70.5 -6.5 t-47.5 -11.5t-16 -7l-14 11l9 319h336v-73h-264z" />
<glyph unicode="6" horiz-adv-x="525" d="M284 374q89 0 145 -53t56 -132q0 -84 -59 -141t-149 -57q-103 0 -166.5 73t-63.5 231q0 149 66.5 229.5t175.5 80.5q36 0 67 -8.5t50 -20.5t33 -24t20 -20l6 -9l-47 -60l-4 5q-4 5 -9.5 10.5t-13.5 13t-18 14t-22.5 12t-28 9t-32.5 3.5q-160 0 -160 -223v-5q54 72 154 72 zM280 303q-56 0 -94.5 -31.5t-46.5 -84.5q14 -63 50 -92.5t87 -29.5q56 0 92 35.5t36 87.5q0 50 -34 82.5t-90 32.5z" />
<glyph unicode="7" horiz-adv-x="441" d="M28 600h399v-54l-262 -546h-95l258 527h-300v73z" />
<glyph unicode="8" horiz-adv-x="519" d="M261 -9q-99 0 -156.5 51t-57.5 128q0 99 88 145q-73 43 -73 125q0 72 53.5 118.5t145.5 46.5q91 0 144 -46.5t53 -118.5q0 -82 -74 -125q89 -46 89 -145q0 -76 -57.5 -127.5t-154.5 -51.5zM261 344q56 0 86 25.5t30 69.5q0 40 -31 66.5t-85 26.5q-55 0 -86.5 -26.5 t-31.5 -66.5q0 -44 30.5 -69.5t87.5 -25.5zM391 171q0 46 -36 77t-94 31q-60 0 -96.5 -31t-36.5 -77t36.5 -76.5t96.5 -30.5q58 0 94 30.5t36 76.5z" />
<glyph unicode="9" horiz-adv-x="523" d="M242 66q151 0 151 229v4q-56 -72 -154 -72q-89 0 -145.5 53.5t-56.5 132.5q0 84 59 141.5t150 57.5q103 0 166 -73.5t63 -232.5q0 -151 -62.5 -233t-170.5 -82q-36 0 -67 8.5t-50 20.5t-33 24t-20 20l-5 9l46 60l7 -9q8 -8 18 -17t24.5 -18.5t35.5 -16t44 -6.5zM243 299 q55 0 92.5 30.5t47.5 82.5q-14 64 -50.5 95t-86.5 31q-55 0 -91 -36t-36 -88q0 -51 34 -83t90 -32z" />
<glyph unicode=":" horiz-adv-x="216" d="M98 336q-17 4 -26 18.5t-5 31.5t19.5 26t32.5 5q17 -5 25.5 -20t4.5 -32q-5 -17 -19.5 -25t-31.5 -4zM98 0q-17 5 -26 19.5t-5 31.5q5 17 20 25.5t32 4.5t25.5 -19t4.5 -32q-5 -17 -19.5 -25.5t-31.5 -4.5z" />
<glyph unicode=";" horiz-adv-x="236" d="M120 325q-21 0 -36 14.5t-15 36.5q0 21 15 36t36 15q22 0 37 -15t15 -36q0 -22 -15 -36.5t-37 -14.5zM35 -79q33 8 53 27t23 43q-18 3 -30 16.5t-12 32.5q0 22 15 37t36 15q22 0 37 -15t15 -37v-7q0 -62 -33 -103.5t-91 -52.5z" />
<glyph unicode="&#x3c;" horiz-adv-x="374" d="M37 320l272 191v-83l-189 -129l189 -129v-83l-272 192v41z" />
<glyph unicode="=" horiz-adv-x="465" d="M61 421h344v-66h-344v66zM61 230h344v-66h-344v66z" />
<glyph unicode="&#x3e;" horiz-adv-x="374" d="M337 279l-272 -192v83l189 129l-189 129v83l272 -191v-41z" />
<glyph unicode="?" horiz-adv-x="422" d="M29 559q7 6 19 15t54 24t88 15q90 0 143 -42.5t53 -115.5q0 -40 -16 -72t-39 -53.5t-46.5 -40.5t-41.5 -42t-20 -49l-2 -26h-57v38q0 37 21.5 70t47.5 54t47.5 51t21.5 61q0 41 -31 66t-83 25q-33 0 -64 -10.5t-46 -21.5l-14 -11zM142 46q0 22 15.5 37.5t37.5 15.5 t37.5 -15.5t15.5 -37.5t-15.5 -38t-37.5 -16t-37.5 15.5t-15.5 38.5z" />
<glyph unicode="@" horiz-adv-x="1006" d="M754 51q-60 0 -93.5 29t-42.5 68h-6q-7 -11 -17.5 -22.5t-31 -29t-52 -28.5t-67.5 -11q-79 0 -128 51t-49 136q0 111 67.5 182t161.5 71q110 0 143 -86l19 76h60l-29 -251q-3 -21 -3 -41q0 -38 20.5 -60.5t57.5 -22.5q56 0 94 54.5t38 148.5q0 67 -25.5 132.5t-72 119.5 t-121.5 87.5t-165 33.5q-179 0 -297 -121t-118 -289q0 -171 120.5 -292t290.5 -121q56 0 109 14t77 29l25 14l24 -51q-9 -7 -27.5 -17.5t-79.5 -27.5t-128 -17q-135 0 -244 65.5t-167.5 172t-58.5 229.5q0 127 58.5 233.5t168 171t247.5 64.5q192 0 321.5 -125t129.5 -303 q0 -115 -58.5 -190.5t-150.5 -75.5zM464 126q66 0 110.5 52t44.5 126q0 58 -32.5 91t-85.5 33q-61 0 -106 -48.5t-45 -124.5q0 -61 31 -95t83 -34z" />
<glyph unicode="A" d="M589 0h-83l-55 130h-308l-54 -130h-82l253 600h75zM172 201h251l-125 301z" />
<glyph unicode="B" horiz-adv-x="603" d="M79 600h257q98 0 151.5 -41.5t53.5 -120.5q0 -98 -89 -130v-4q50 -13 79 -48t29 -88q0 -83 -57 -125.5t-156 -42.5h-268v600zM159 527v-188h175q57 0 91 25t34 68q0 95 -124 95h-176zM159 268v-195h190q57 0 92.5 25.5t35.5 73.5q0 44 -35 69t-90 27h-193z" />
<glyph unicode="C" horiz-adv-x="563" d="M540 68q-3 -3 -8 -8.5t-23.5 -18.5t-39.5 -23t-56 -18.5t-73 -8.5q-132 0 -216.5 89.5t-84.5 218.5t84 217.5t217 88.5q60 0 110 -19t70 -38l20 -19l-46 -62q-7 7 -19 17.5t-52 28t-82 17.5q-95 0 -157.5 -68t-62.5 -163q0 -96 62 -164t158 -68q42 0 80.5 15.5t55.5 31.5 l17 15z" />
<glyph unicode="D" horiz-adv-x="631" d="M590 300q0 -136 -84.5 -218t-222.5 -82h-204v600h204q138 0 222.5 -82t84.5 -218zM159 527v-454h120q100 0 165 61t65 166t-65 166t-165 61h-120z" />
<glyph unicode="E" horiz-adv-x="543" d="M452 268h-293v-195h343v-73h-423v600h423v-73h-343v-188h293v-71z" />
<glyph unicode="F" horiz-adv-x="532" d="M452 268h-293v-268h-80v600h424v-73h-344v-188h293v-71z" />
<glyph unicode="G" horiz-adv-x="638" d="M340 605q41 0 78 -8t60.5 -19.5t41.5 -23t26 -19.5l7 -8l-47 -61q-7 7 -19.5 17.5t-55.5 28.5t-91 18q-98 0 -158 -67.5t-60 -163.5q0 -98 59 -165.5t156 -67.5q84 0 136 53t52 137v4h-202v72h284v-48q0 -134 -72 -213.5t-198 -79.5q-135 0 -216 88.5t-81 219.5 q0 129 83 217.5t217 88.5z" />
<glyph unicode="H" horiz-adv-x="646" d="M567 0h-80v260h-328v-260h-80v600h80v-268h328v268h80v-600z" />
<glyph unicode="I" horiz-adv-x="238" d="M159 0h-80v600h80v-600z" />
<glyph unicode="J" horiz-adv-x="435" d="M361 600v-406q0 -99 -50.5 -153.5t-146.5 -54.5q-42 0 -79.5 13.5t-49.5 22t-18 14.5l38 61q43 -34 103 -34q124 0 124 147v390h79z" />
<glyph unicode="K" horiz-adv-x="574" d="M159 281l305 319h92v-12l-226 -237l230 -339v-12h-86l-200 292l-115 -121v-171h-80v600h80v-319z" />
<glyph unicode="L" horiz-adv-x="491" d="M79 0v600h80v-527h306v-73h-386z" />
<glyph unicode="M" horiz-adv-x="724" d="M566 452l-191 -246h-25l-191 243v-449h-80v600h58l225 -289l226 289h56l1 -600h-79v452z" />
<glyph unicode="N" horiz-adv-x="665" d="M586 0h-58l-369 460v-460h-80v600h59l368 -457v457h80v-600z" />
<glyph unicode="O" horiz-adv-x="676" d="M338 -9q-133 0 -215.5 89t-82.5 219q0 129 82.5 217.5t215.5 88.5t215.5 -88.5t82.5 -217.5q0 -130 -82.5 -219t-215.5 -89zM338 67q97 0 157 67.5t60 164.5q0 96 -60.5 163.5t-156.5 67.5t-156 -67.5t-60 -163.5q0 -97 60 -164.5t156 -67.5z" />
<glyph unicode="P" horiz-adv-x="577" d="M319 600q107 0 168 -52.5t61 -147.5q0 -99 -62.5 -153t-169.5 -54h-157v-193h-80v600h240zM466 398q0 64 -40 96.5t-110 32.5h-157v-262h157q150 0 150 133z" />
<glyph unicode="Q" horiz-adv-x="676" d="M636 299q0 -91 -41.5 -164.5t-115.5 -110.5l85 -143h-90l-69 117q-29 -7 -67 -7q-133 0 -215.5 89t-82.5 219q0 129 82.5 217.5t215.5 88.5t215.5 -88.5t82.5 -217.5zM122 299q0 -97 60 -164.5t156 -67.5q97 0 157 67.5t60 164.5q0 96 -60.5 163.5t-156.5 67.5 t-156 -67.5t-60 -163.5z" />
<glyph unicode="R" horiz-adv-x="598" d="M318 600q108 0 169 -52.5t61 -147.5q0 -71 -35.5 -119t-97.5 -68v-4l147 -193v-16h-85l-151 199h-167v-199h-80v600h239zM466 398q0 64 -40 96.5t-110 32.5h-157v-256h164q65 0 104 32t39 95z" />
<glyph unicode="S" horiz-adv-x="512" d="M83 124q7 -6 20.5 -16t58 -26t92.5 -16q70 0 104 25t34 66q0 40 -31 64t-120 51q-106 32 -152.5 70.5t-46.5 102.5q0 75 57 117.5t158 42.5q64 0 114 -15t69 -30l18 -15l-43 -65q-6 6 -18 14.5t-53 22.5t-87 14q-60 0 -95.5 -21.5t-35.5 -63.5q0 -32 32 -53t118 -47 q111 -32 155.5 -74.5t44.5 -111.5q0 -74 -57.5 -121.5t-162.5 -47.5q-41 0 -78.5 7.5t-61.5 18t-42 21t-26 18.5l-8 7z" />
<glyph unicode="T" horiz-adv-x="520" d="M25 600h471v-73h-196v-527h-80v527h-195v73z" />
<glyph unicode="U" horiz-adv-x="631" d="M316 -9q-114 0 -179.5 73t-65.5 193v343h80v-343q0 -86 42.5 -138t122.5 -52t122 52t42 138v343h80v-343q0 -120 -65 -193t-179 -73z" />
<glyph unicode="V" d="M7 600h82l208 -502l209 502h83l-254 -600h-75z" />
<glyph unicode="W" horiz-adv-x="805" d="M402 472l-128 -472h-62l-197 600h83l141 -471l127 471h73l126 -471l142 471h83l-197 -600h-62z" />
<glyph unicode="X" horiz-adv-x="535" d="M326 308l197 -308h-96l-138 218l-22 43l-23 -43l-136 -218h-94l194 308l-188 292h96l132 -209l20 -39l21 39l131 209h95z" />
<glyph unicode="Y" horiz-adv-x="532" d="M435 600h91l-220 -370v-230h-80v230l-219 370h91l149 -257l19 -41h2l20 41z" />
<glyph unicode="Z" horiz-adv-x="526" d="M30 55l357 472h-345v73h452v-56l-351 -471h344v-73h-457v55z" />
<glyph unicode="[" horiz-adv-x="322" d="M62 700h244v-65h-167v-700h167v-65h-244v830z" />
<glyph unicode="\" horiz-adv-x="362" d="M33 798h80l216 -926h-79z" />
<glyph unicode="]" horiz-adv-x="322" d="M16 -65h167v700h-167v65h244v-830h-244v65z" />
<glyph unicode="^" horiz-adv-x="430" d="M214 637l-100 -140h-67l143 196h49l144 -196h-69z" />
<glyph unicode="_" horiz-adv-x="545" d="M52 -40h442v-65h-442v65z" />
<glyph unicode="`" horiz-adv-x="279" d="M57 630l94 14l50 -147h-55z" />
<glyph unicode="a" horiz-adv-x="462" d="M402 0h-55l-9 57h-5q-45 -67 -143 -67q-74 0 -117 38t-43 96q0 63 49.5 100t142.5 37q60 0 104 -16v15q0 102 -116 102q-29 0 -58.5 -8t-43.5 -16l-15 -9l-29 63q61 38 154 38q94 0 139 -45t45 -126v-259zM326 188q-40 19 -97 19q-121 0 -121 -80q0 -34 25 -55.5 t71 -21.5q53 0 87.5 31.5t34.5 76.5v30z" />
<glyph unicode="b" horiz-adv-x="522" d="M65 605h78v-245h4q1 3 4 7.5t14 16.5t26 21.5t41.5 17t58.5 7.5q82 0 137.5 -61.5t55.5 -158.5q0 -98 -55.5 -159t-140.5 -61q-33 0 -61.5 8.5t-44.5 20t-27.5 23.5t-16.5 20l-4 9h-4l-10 -71h-55v605zM139 210q0 -71 38.5 -112.5t95.5 -41.5t94.5 43.5t37.5 110.5 q0 68 -37.5 111t-94.5 43t-95.5 -41.5t-38.5 -112.5z" />
<glyph unicode="c" horiz-adv-x="410" d="M249 -10q-94 0 -152.5 61t-58.5 158q0 98 58.5 159.5t152.5 61.5q41 0 73 -9t44 -19l11 -9l-23 -59q-39 30 -100 30q-59 0 -97.5 -41.5t-38.5 -113.5t38.5 -112.5t97.5 -40.5q27 0 52 7.5t36 14.5l12 8l22 -59q-4 -4 -12.5 -10t-41 -16.5t-73.5 -10.5z" />
<glyph unicode="d" horiz-adv-x="523" d="M380 366v239h79v-605h-54l-12 65h-3q-2 -3 -5 -8t-16 -18t-29 -23t-44 -18t-60 -8q-85 0 -141.5 61t-56.5 159q0 97 56 158.5t139 61.5q31 0 57 -6.5t41.5 -16t26.5 -19t15 -16.5l4 -6h3zM385 210q0 71 -38.5 112.5t-96.5 41.5q-57 0 -94.5 -43t-37.5 -111 q0 -67 37.5 -110.5t94.5 -43.5q58 0 96.5 41.5t38.5 112.5z" />
<glyph unicode="e" horiz-adv-x="458" d="M424 221v-20h-308q2 -71 40.5 -108.5t100.5 -37.5q33 0 62.5 9.5t42.5 19.5l12 10l29 -56q-5 -5 -15.5 -13.5t-49 -22t-85.5 -13.5q-99 0 -157 60.5t-58 159.5q0 97 54.5 159t144.5 62q89 0 138 -58.5t49 -150.5zM121 260h224q-14 105 -109 105q-97 0 -115 -105z" />
<glyph unicode="f" horiz-adv-x="310" d="M242 613q26 0 48.5 -5t31.5 -10l10 -5l-24 -62q-27 13 -62 13q-32 0 -51 -20t-19 -55v-49h122v-63h-122v-357h-79v357h-77v63h77v47q0 68 38.5 107t106.5 39z" />
<glyph unicode="g" horiz-adv-x="467" d="M376 358v-2q23 -16 23 -77q0 -56 -43.5 -98t-121.5 -42q-54 0 -95 26q-33 -13 -33 -40q0 -14 9 -23.5t42.5 -17.5t94.5 -11q107 -5 151 -35.5t44 -88.5t-57.5 -98.5t-155.5 -40.5q-100 0 -149.5 33t-49.5 89q0 63 75 98q-72 26 -72 91q0 57 59 82q-24 35 -24 79 q0 62 42.5 104t118.5 42q34 0 61 -8h145v-62h-64zM234 370q-43 0 -68.5 -25.5t-25.5 -61.5q0 -37 25.5 -61.5t68.5 -24.5q46 0 71.5 24.5t25.5 61.5q0 36 -26 61.5t-71 25.5zM252 9q-43 2 -64 4q-77 -27 -77 -78q0 -28 31 -46.5t92 -18.5q66 0 100.5 20.5t34.5 52.5 q0 62 -117 66z" />
<glyph unicode="h" horiz-adv-x="510" d="M65 605h79v-226h3q43 51 131 51q80 0 126 -52.5t46 -139.5v-238h-78v229q0 59 -29.5 96.5t-83.5 37.5q-53 0 -83 -35.5t-32 -77.5v-250h-79v605z" />
<glyph unicode="i" horiz-adv-x="211" d="M105 507q-21 0 -36 14.5t-15 35.5q0 22 15 36.5t36 14.5q22 0 37 -14.5t15 -36.5q0 -21 -15 -35.5t-37 -14.5zM66 420h79v-420h-79v420z" />
<glyph unicode="j" horiz-adv-x="212" d="M105 507q-21 0 -36 14.5t-15 35.5q0 22 15 36.5t36 14.5q22 0 37 -14.5t15 -36.5q0 -21 -15 -35.5t-37 -14.5zM5 -90h11q25 0 37.5 14t12.5 38v458h79v-462q0 -114 -112 -114h-28v66z" />
<glyph unicode="k" horiz-adv-x="445" d="M434 420l-187 -182l188 -238h-97l-149 186l-46 -45v-141h-78v605h78v-366h2l187 181h102z" />
<glyph unicode="l" horiz-adv-x="213" d="M67 605h79v-605h-79v605z" />
<glyph unicode="m" horiz-adv-x="811" d="M119 420l8 -61h5q25 37 57.5 54t84.5 17q105 0 150 -79h5q48 79 150 79q81 0 126.5 -52.5t45.5 -139.5v-238h-78v230q0 59 -29 96t-83 37q-55 0 -83.5 -34t-29.5 -77v-252h-79v245q0 52 -29.5 85t-83.5 33q-53 0 -81.5 -34t-31.5 -76v-253h-78v420h54z" />
<glyph unicode="n" horiz-adv-x="511" d="M65 420h54l8 -61h5q46 71 145 71q81 0 127.5 -52.5t46.5 -139.5v-238h-78v230q0 59 -30 96t-84 37t-84 -35t-32 -77v-251h-78v420z" />
<glyph unicode="o" horiz-adv-x="500" d="M463 208q0 -98 -61.5 -158t-151.5 -60q-91 0 -152 60t-61 158q0 99 61.5 160.5t151.5 61.5t151.5 -62t61.5 -160zM250 53q57 0 96 42.5t39 113.5q0 70 -39.5 114t-95.5 44q-57 0 -96.5 -44t-39.5 -114q0 -71 39.5 -113.5t96.5 -42.5z" />
<glyph unicode="p" horiz-adv-x="522" d="M143 54v-210h-78v576h54l10 -61h7l5 7.5t16 17t29 22t43.5 17t59.5 7.5q84 0 139.5 -61t55.5 -159q0 -97 -55.5 -158.5t-137.5 -61.5q-32 0 -58.5 6.5t-41.5 16t-25.5 19t-14.5 16.5l-4 6h-4zM139 210q0 -70 38.5 -112t95.5 -42t94.5 43t37.5 111q0 67 -37.5 110.5 t-94.5 43.5t-95.5 -42t-38.5 -112z" />
<glyph unicode="q" horiz-adv-x="523" d="M459 -156h-79v216h-3q-1 -3 -4 -7.5t-14.5 -16.5t-26 -21.5t-41 -17t-58.5 -7.5q-83 0 -139 61.5t-56 158.5q0 98 56.5 159t141.5 61q33 0 61 -8t44 -20t27.5 -24t15.5 -20l4 -8h5l10 70h56v-576zM385 210q0 71 -38.5 112.5t-96.5 41.5q-57 0 -94.5 -43.5t-37.5 -110.5 q0 -68 37.5 -111t94.5 -43q58 0 96.5 41.5t38.5 112.5z" />
<glyph unicode="r" horiz-adv-x="288" d="M276 356h-23q-46 0 -78 -32.5t-32 -81.5v-242h-78v420h54l8 -72h4q33 73 121 73h24v-65z" />
<glyph unicode="s" horiz-adv-x="412" d="M70 95q58 -41 141 -41q90 0 90 58q0 24 -27 39.5t-66 25t-77.5 22.5t-65.5 40.5t-27 69.5q0 53 40.5 87t117.5 34q48 0 90 -9t60 -17l19 -9l-30 -64q-53 34 -132 34q-90 0 -90 -53q0 -23 27 -37t66 -23t78 -21.5t66 -41.5t27 -74q0 -54 -40.5 -89.5t-125.5 -35.5 q-53 0 -96.5 12.5t-60.5 25.5l-17 13z" />
<glyph unicode="t" horiz-adv-x="324" d="M93 420v128h78v-128h121v-63h-121v-236q0 -64 59 -64q13 0 28 4.5t23 8.5l8 5l25 -56q-44 -29 -94 -29q-64 0 -95.5 34.5t-31.5 96.5v236h-78v63h78z" />
<glyph unicode="u" horiz-adv-x="508" d="M365 420h78v-420h-50l-14 59h-3q-46 -69 -146 -69q-80 0 -125 52.5t-45 139.5v238h78v-230q0 -60 28 -97t81 -37q56 0 86 35.5t32 77.5v251z" />
<glyph unicode="v" horiz-adv-x="457" d="M256 0h-55l-191 420h87l122 -298q7 -17 7 -30h5q0 10 8 30l122 298h86z" />
<glyph unicode="w" horiz-adv-x="655" d="M15 420h82l94 -298q6 -20 6 -30h8q0 4 1.5 9t3 11.5t2.5 9.5l84 298h66l85 -298q6 -13 6 -30h8q0 10 6 30l95 298h78l-154 -420h-68l-83 294q-5 15 -5 31h-5q0 -13 -6 -31l-83 -294h-67z" />
<glyph unicode="x" horiz-adv-x="437" d="M171 218l-147 202h91l103 -152h3l103 152h90l-149 -202l159 -218h-91l-112 169h-3l-115 -169h-88z" />
<glyph unicode="y" horiz-adv-x="454" d="M190 -156h-82l84 179l-181 397h86l124 -298q7 -23 7 -30h5q0 10 6 30l123 298h81z" />
<glyph unicode="z" horiz-adv-x="422" d="M35 0v41l247 315h-245v64h350v-37l-244 -319h244v-64h-352z" />
<glyph unicode="{" horiz-adv-x="278" d="M40 320q66 0 66 94v169q0 120 126 132l12 -67q-31 -5 -43.5 -20t-12.5 -53v-168q0 -95 -61 -117v-9q61 -21 61 -114v-171q0 -37 12.5 -52.5t43.5 -19.5l-12 -66q-126 9 -126 130v171q0 95 -66 95h-25v66h25z" />
<glyph unicode="|" horiz-adv-x="198" d="M136 -128h-74v815h74v-815z" />
<glyph unicode="}" horiz-adv-x="278" d="M263 320v-66h-25q-66 0 -66 -95v-171q0 -121 -126 -130l-12 66q31 4 43.5 19.5t12.5 52.5v171q0 93 61 114v9q-61 22 -61 117v168q0 38 -12.5 53t-43.5 20l12 67q126 -12 126 -132v-169q0 -94 66 -94h25z" />
<glyph unicode="~" horiz-adv-x="480" d="M312 316q21 0 41.5 6t30.5 12l10 7l27 -48q-41 -38 -108 -38q-28 0 -71 16t-75 16q-20 0 -40.5 -6.5t-30.5 -12.5l-10 -6l-26 48q42 38 106 38q28 0 71 -16t75 -16z" />
<glyph unicode="&#xa1;" horiz-adv-x="201" d="M48 377q0 23 15.5 38.5t37.5 15.5t37.5 -16t15.5 -38t-15.5 -38t-37.5 -16t-37.5 15.5t-15.5 38.5zM148 -177h-96l21 427h55z" />
<glyph unicode="&#xa2;" horiz-adv-x="428" d="M191 87q-68 19 -108.5 75t-40.5 135q0 95 57.5 156.5t148.5 64.5l11 82h51l-11 -85q24 -4 45.5 -12.5t31.5 -14.5l9 -7l-23 -59q-28 21 -72 27l-40 -305h12q27 0 52 7.5t36 14.5l12 8l21 -59q-5 -4 -14.5 -10t-42 -16.5t-69.5 -10.5h-16l-10 -78h-51zM121 297 q0 -50 21.5 -86.5t57.5 -53.5l39 293q-51 -8 -84.5 -49t-33.5 -104z" />
<glyph unicode="&#xa3;" horiz-adv-x="498" d="M445 0h-380v74l6 3t14.5 10.5t18 19t14 29.5t6.5 42q0 18 -18 84h-64v61h47q-12 51 -12 92q0 80 57 136t159 56q51 0 92.5 -15.5t57.5 -31.5l16 -15l-48 -61q-4 5 -13 13t-39.5 21t-64.5 13q-63 0 -96 -35t-33 -88q0 -43 11 -85h211v-61h-194q16 -58 16 -82 q0 -63 -36 -107h272v-73z" />
<glyph unicode="&#xa5;" horiz-adv-x="579" d="M459 600h90l-184 -310h131v-62h-166v-80h166v-61h-166v-87h-80v87h-166v61h166v80h-166v62h131l-185 310h92l149 -257l19 -41h2l20 41z" />
<glyph unicode="&#xa6;" horiz-adv-x="207" d="M67 330v343h73v-343h-73zM67 -153v343h73v-343h-73z" />
<glyph unicode="&#xa7;" horiz-adv-x="516" d="M265 613q61 0 110 -11.5t68 -23.5l19 -11l-42 -64q-6 5 -17.5 11.5t-52 18t-85.5 11.5q-120 0 -120 -58q0 -28 26.5 -44t87.5 -32q180 -50 180 -129q0 -44 -33 -69q70 -39 70 -96q0 -55 -54.5 -92t-163.5 -37q-66 0 -121 14.5t-77 28.5l-22 15l42 62q8 -5 22.5 -13 t60 -21.5t93.5 -13.5q128 0 128 57q0 31 -26 45.5t-110 39.5q-77 22 -118 50.5t-41 71.5q0 41 36 64q-72 38 -72 97q0 58 54 93.5t158 35.5zM340 241q19 13 19 37q0 21 -31 37.5t-97 34.5q-2 1 -18.5 5t-24.5 7q-21 -10 -21 -35q0 -35 109 -66z" />
<glyph unicode="&#xa8;" horiz-adv-x="455" d="M94 713q0 20 14.5 35t34.5 15q19 0 34 -15t15 -35q0 -19 -15 -34t-34 -15t-34 15t-15 34zM259 713q0 20 14.5 35t33.5 15q20 0 34.5 -15t14.5 -35q0 -19 -15 -34t-34 -15t-33.5 14.5t-14.5 34.5z" />
<glyph unicode="&#xa9;" horiz-adv-x="686" d="M344 605q136 0 217.5 -88t81.5 -218t-81.5 -217.5t-217.5 -87.5t-218 88t-82 217q0 130 82 218t218 88zM344 563q-116 0 -185.5 -75.5t-69.5 -188.5q0 -112 69.5 -187.5t185.5 -75.5t186 75.5t70 187.5q0 113 -70 188.5t-186 75.5zM424 382q-26 27 -72 27 q-48 0 -76 -30.5t-28 -78.5q0 -47 28 -77.5t76 -30.5q20 0 38 7t26 13l8 7l28 -42q-3 -4 -10.5 -10t-34 -16.5t-58.5 -10.5q-72 0 -115 45.5t-43 114.5t43 115t115 46q32 0 57.5 -9.5t35.5 -18.5l10 -9z" />
<glyph unicode="&#xaa;" horiz-adv-x="398" d="M37 372q0 48 37.5 76t99.5 28q75 0 101 -30v13q0 53 -18.5 77t-70.5 24q-49 0 -95 -23l-19 51q60 26 124 26q78 0 110.5 -40t32.5 -117v-183h-47l-9 37h-4q-28 -45 -116 -45q-55 0 -90.5 30t-35.5 76zM99 373q0 -28 22.5 -44.5t59.5 -16.5q40 0 66 17.5t28 41.5v4 q0 26 -25 41.5t-65 15.5t-63 -15.5t-23 -43.5z" />
<glyph unicode="&#xab;" horiz-adv-x="460" d="M40 220l121 188h68v-10l-118 -186v-5l118 -189v-10h-68l-121 189v23zM230 220l122 188h66v-10l-118 -186v-5l118 -189v-10h-66l-122 189v23z" />
<glyph unicode="&#xac;" horiz-adv-x="547" d="M47 346h436v-346h-67v281h-369v65z" />
<glyph unicode="&#xad;" horiz-adv-x="395" d="M57 262h280v-66h-280v66z" />
<glyph unicode="&#xae;" horiz-adv-x="547" d="M500 380q0 -99 -62 -166t-165 -67q-102 0 -163.5 67.5t-61.5 165.5q0 99 61 166t164 67t165 -67t62 -166zM455 380q0 82 -50.5 136t-131.5 54t-130.5 -53t-49.5 -137q0 -82 50 -136t130 -54q81 0 131.5 54t50.5 136zM281 485q38 0 61 -19.5t23 -52.5q0 -21 -11 -37.5 t-28 -23.5v-1l42 -59v-9h-41l-42 59h-57v-59h-39v202h92zM228 447v-68h52q44 0 44 34t-44 34h-52z" />
<glyph unicode="&#xaf;" horiz-adv-x="526" d="M121 719h295v-51h-295v51z" />
<glyph unicode="&#xb0;" horiz-adv-x="298" d="M149 672q50 0 81.5 -31t31.5 -77t-31.5 -76.5t-81.5 -30.5t-81.5 30.5t-31.5 76.5t31.5 77t81.5 31zM149 629q-29 0 -47 -18.5t-18 -46.5q0 -27 18 -45t47 -18t47 18t18 45q0 28 -18 46.5t-47 18.5z" />
<glyph unicode="&#xb1;" horiz-adv-x="524" d="M231 172v168h-170v65h170v173h66v-173h166v-65h-166v-168h-66zM463 37h-402v65h402v-65z" />
<glyph unicode="&#xb2;" horiz-adv-x="345" d="M52 389l140 121q34 29 34 61q0 55 -62 55q-39 0 -84 -36l-30 43q5 5 14 12.5t39 19.5t62 12q60 0 89.5 -29t29.5 -75q0 -56 -45 -93l-106 -89h159v-49h-240v47z" />
<glyph unicode="&#xb3;" horiz-adv-x="333" d="M52 668h225v-37l-72 -92q87 -14 87 -96q0 -47 -33.5 -78t-96.5 -31q-33 0 -63.5 11.5t-41.5 20t-17 14.5l31 41q36 -37 89 -37q36 0 55.5 16.5t19.5 42.5q0 53 -65 55h-38v33l69 88h-149v49z" />
<glyph unicode="&#xb4;" horiz-adv-x="279" d="M115 497h-56l53 145l94 -13z" />
<glyph unicode="&#xb5;" horiz-adv-x="504" d="M365 420h78v-420h-51l-13 59h-3q-46 -69 -146 -69q-55 0 -94 28l1 -146h-77v548h78v-230q0 -60 28 -97t81 -37q55 0 85.5 35.5t32.5 77.5v251z" />
<glyph unicode="&#xb6;" horiz-adv-x="526" d="M377 122h-62q-126 0 -205 63.5t-79 180.5q0 113 77 174t204 61h145v-683h-80v204z" />
<glyph unicode="&#xb7;" horiz-adv-x="210" d="M52 359q0 22 15.5 38t37.5 16t37.5 -15.5t15.5 -38.5t-15 -38t-38 -15q-22 0 -37.5 15.5t-15.5 37.5z" />
<glyph unicode="&#xb8;" horiz-adv-x="206" d="M61 -48l24 51h42l-14 -34q28 -1 46 -17.5t18 -46.5q0 -32 -21 -51.5t-59 -19.5q-23 0 -41.5 7t-25.5 15l-8 7l21 30l3 -3q3 -2 7.5 -4.5t10.5 -5.5t14.5 -5t16.5 -2q41 0 41 33q0 31 -40 31l-21 -2z" />
<glyph unicode="&#xb9;" horiz-adv-x="210" d="M24 668h124v-326h-56v277h-68v49z" />
<glyph unicode="&#xba;" horiz-adv-x="406" d="M203 613q73 0 119 -47.5t46 -126.5q0 -77 -46 -123.5t-119 -46.5q-72 0 -118.5 47t-46.5 123q0 79 46.5 126.5t118.5 47.5zM203 558q-46 0 -74 -32.5t-28 -85.5q0 -52 28 -84t74 -32q47 0 75 31.5t28 84.5t-28 85.5t-75 32.5z" />
<glyph unicode="&#xbb;" horiz-adv-x="459" d="M231 197l-122 -189h-68v10l119 189v5l-119 186v10h68l122 -188v-23zM420 197l-121 -189h-69v10l119 189v5l-119 186v10h69l121 -188v-23z" />
<glyph unicode="&#xbc;" horiz-adv-x="626" d="M32 0l467 600h69l-469 -600h-67zM41 600h125v-326h-56v277h-69v49zM312 120l178 206h42v-194h59v-47h-59v-85h-53v85h-167v35zM408 161q-6 -8 -30 -32v-1l44 4h57v112h-1z" />
<glyph unicode="&#xbd;" horiz-adv-x="687" d="M32 0l467 600h69l-469 -600h-67zM44 600h124v-326h-56v277h-68v49zM410 0h240v49h-159l106 89q45 37 45 93q0 46 -29 75t-89 29q-32 0 -60.5 -11t-41.5 -22l-13 -11l29 -43q45 36 84 36q62 0 62 -55q0 -32 -34 -61l-140 -121v-47z" />
<glyph unicode="&#xbe;" horiz-adv-x="708" d="M47 600h225v-37l-72 -92q87 -14 87 -96q0 -47 -33.5 -78t-96.5 -31q-33 0 -63.5 11.5t-41.5 20t-17 14.5l31 41q36 -37 89 -37q36 0 55.5 16.5t19.5 42.5q0 53 -65 55h-38v33l69 88h-149v49zM119 0l467 600h68l-468 -600h-67zM395 119l178 206h42v-194h58v-47h-58v-84 h-54v84h-166v35zM491 160q-6 -8 -30 -32v-1l44 4h56v113h-1z" />
<glyph unicode="&#xbf;" horiz-adv-x="415" d="M276 380q0 -22 -15 -37.5t-37 -15.5t-37.5 15.5t-15.5 37.5t15.5 38t37.5 16t37 -15.5t15 -38.5zM390 -133q-7 -6 -19 -15t-54 -24t-88 -15q-90 0 -143.5 42t-53.5 115q0 40 16 72.5t39.5 54t47 40.5t41 42t19.5 49l2 26h58v-38q0 -31 -14 -58t-34.5 -47t-41 -39 t-34.5 -42.5t-14 -49.5q0 -41 31 -66.5t83 -25.5q33 0 64 11t45 22l15 11z" />
<glyph unicode="&#xc0;" d="M179 768l94 14l50 -147h-55zM589 0h-83l-55 130h-308l-54 -130h-82l253 600h75zM172 201h251l-125 301z" />
<glyph unicode="&#xc1;" d="M327 635h-56l53 145l94 -13zM589 0h-83l-55 130h-308l-54 -130h-82l253 600h75zM172 201h251l-125 301z" />
<glyph unicode="&#xc2;" d="M298 725l-53 -61h-68l88 112h64l90 -112h-69zM589 0h-83l-55 130h-308l-54 -130h-82l253 600h75zM172 201h251l-125 301z" />
<glyph unicode="&#xc3;" d="M376 664q-34 0 -79.5 28t-63.5 28q-14 0 -23 -6.5t-13 -13.5t-8 -21l-4 -16l-56 6l5 28q19 85 90 85q32 0 77.5 -28.5t64.5 -28.5q36 0 45 43l3 15l56 -6l-5 -26q-15 -87 -89 -87zM589 0h-83l-55 130h-308l-54 -130h-82l253 600h75zM172 201h251l-125 301z" />
<glyph unicode="&#xc4;" d="M166 713q0 20 14.5 35t34.5 15q19 0 34 -15t15 -35q0 -19 -15 -34t-34 -15t-34 15t-15 34zM331 713q0 20 14.5 35t33.5 15q20 0 34.5 -15t14.5 -35q0 -19 -15 -34t-34 -15t-33.5 14.5t-14.5 34.5zM589 0h-83l-55 130h-308l-54 -130h-82l253 600h75zM172 201h251l-125 301 z" />
<glyph unicode="&#xc5;" d="M192 703q0 39 29.5 63t76.5 24q46 0 75 -24t29 -63t-29 -63.5t-75 -24.5q-47 0 -76.5 24.5t-29.5 63.5zM351 703q0 41 -53 41q-55 0 -55 -41q0 -42 55 -42q53 0 53 42zM589 0h-83l-55 130h-308l-54 -130h-82l253 600h75zM172 201h251l-125 301z" />
<glyph unicode="&#xc6;" horiz-adv-x="881" d="M405 600h436v-73h-346v-188h293v-72h-293v-194h346v-73h-425v131h-239l-87 -131h-97zM225 202h191v276h-7z" />
<glyph unicode="&#xc7;" horiz-adv-x="563" d="M281 -48l17 37q-116 14 -187.5 101t-71.5 209q0 134 84 224t217 90q60 0 110 -19t70 -38l20 -19l-46 -62q-6 7 -18.5 17.5t-52 28t-82.5 17.5q-96 0 -158 -69t-62 -170q0 -100 62 -169t158 -69q43 0 81 15.5t55 31.5l17 16l46 -61l-8 -8t-23 -18.5t-39 -23.5t-55.5 -18.5 t-71.5 -8.5h-3l-7 -17q28 -1 46 -17.5t18 -46.5q0 -32 -21 -51.5t-59 -19.5q-23 0 -41.5 7t-25.5 15l-8 7l21 30l3 -3q3 -2 7.5 -4.5t10.5 -5.5t14.5 -5t16.5 -2q41 0 41 33q0 31 -40 31l-21 -2z" />
<glyph unicode="&#xc8;" horiz-adv-x="543" d="M171 768l94 14l50 -147h-55zM452 268h-293v-195h343v-73h-423v600h423v-73h-343v-188h293v-71z" />
<glyph unicode="&#xc9;" horiz-adv-x="543" d="M319 635h-56l53 145l94 -13zM452 268h-293v-195h343v-73h-423v600h423v-73h-343v-188h293v-71z" />
<glyph unicode="&#xca;" horiz-adv-x="543" d="M290 725l-53 -61h-68l88 112h64l90 -112h-69zM452 268h-293v-195h343v-73h-423v600h423v-73h-343v-188h293v-71z" />
<glyph unicode="&#xcb;" horiz-adv-x="543" d="M158 713q0 20 14.5 35t34.5 15q19 0 34 -15t15 -35q0 -19 -15 -34t-34 -15t-34 15t-15 34zM323 713q0 20 14.5 35t33.5 15q20 0 34.5 -15t14.5 -35q0 -19 -15 -34t-34 -15t-33.5 14.5t-14.5 34.5zM452 268h-293v-195h343v-73h-423v600h423v-73h-343v-188h293v-71z" />
<glyph unicode="&#xcc;" horiz-adv-x="238" d="M0 768l94 14l50 -147h-55zM159 0h-80v600h80v-600z" />
<glyph unicode="&#xcd;" horiz-adv-x="238" d="M148 635h-56l53 145l94 -13zM159 0h-80v600h80v-600z" />
<glyph unicode="&#xce;" horiz-adv-x="238" d="M119 725l-53 -61h-68l88 112h64l90 -112h-69zM159 0h-80v600h80v-600z" />
<glyph unicode="&#xcf;" horiz-adv-x="238" d="M-13 713q0 20 14.5 35t34.5 15q19 0 34 -15t15 -35q0 -19 -15 -34t-34 -15q-20 0 -34.5 15t-14.5 34zM152 713q0 20 14.5 35t33.5 15q20 0 34.5 -15t14.5 -35q0 -19 -14.5 -34t-34.5 -15q-19 0 -33.5 14.5t-14.5 34.5zM159 0h-80v600h80v-600z" />
<glyph unicode="&#xd0;" horiz-adv-x="632" d="M23 340h58v260h204q138 0 222 -82t84 -218t-84 -218t-222 -82h-204v268h-58v72zM160 527v-187h170v-72h-170v-195h120q100 0 165 61t65 166t-65 166t-165 61h-120z" />
<glyph unicode="&#xd1;" horiz-adv-x="665" d="M412 665q-34 0 -79.5 28t-63.5 28q-14 0 -23 -6.5t-13 -13.5t-8 -21l-4 -16l-56 6l5 28q19 85 90 85q32 0 77.5 -28.5t64.5 -28.5q36 0 45 43l3 15l56 -6l-5 -26q-15 -87 -89 -87zM586 0h-58l-369 460v-460h-80v600h59l368 -457v457h80v-600z" />
<glyph unicode="&#xd2;" horiz-adv-x="676" d="M221 768l94 14l50 -147h-55zM338 -9q-133 0 -215.5 89t-82.5 219q0 129 82.5 217.5t215.5 88.5t215.5 -88.5t82.5 -217.5q0 -130 -82.5 -219t-215.5 -89zM338 67q97 0 157 67.5t60 164.5q0 96 -60.5 163.5t-156.5 67.5t-156 -67.5t-60 -163.5q0 -97 60 -164.5t156 -67.5z " />
<glyph unicode="&#xd3;" horiz-adv-x="676" d="M369 635h-56l53 145l94 -13zM338 -9q-133 0 -215.5 89t-82.5 219q0 129 82.5 217.5t215.5 88.5t215.5 -88.5t82.5 -217.5q0 -130 -82.5 -219t-215.5 -89zM338 67q97 0 157 67.5t60 164.5q0 96 -60.5 163.5t-156.5 67.5t-156 -67.5t-60 -163.5q0 -97 60 -164.5t156 -67.5z " />
<glyph unicode="&#xd4;" horiz-adv-x="676" d="M340 725l-53 -61h-68l88 112h64l90 -112h-69zM338 -9q-133 0 -215.5 89t-82.5 219q0 129 82.5 217.5t215.5 88.5t215.5 -88.5t82.5 -217.5q0 -130 -82.5 -219t-215.5 -89zM338 67q97 0 157 67.5t60 164.5q0 96 -60.5 163.5t-156.5 67.5t-156 -67.5t-60 -163.5 q0 -97 60 -164.5t156 -67.5z" />
<glyph unicode="&#xd5;" horiz-adv-x="676" d="M418 664q-34 0 -79.5 28t-63.5 28q-14 0 -23 -6.5t-13 -13.5t-8 -21l-4 -16l-56 6l5 28q19 85 90 85q32 0 77.5 -28.5t64.5 -28.5q36 0 45 43l3 15l56 -6l-5 -26q-15 -87 -89 -87zM338 -9q-133 0 -215.5 89t-82.5 219q0 129 82.5 217.5t215.5 88.5t215.5 -88.5 t82.5 -217.5q0 -130 -82.5 -219t-215.5 -89zM338 67q97 0 157 67.5t60 164.5q0 96 -60.5 163.5t-156.5 67.5t-156 -67.5t-60 -163.5q0 -97 60 -164.5t156 -67.5z" />
<glyph unicode="&#xd6;" horiz-adv-x="676" d="M208 713q0 20 14.5 35t34.5 15q19 0 34 -15t15 -35q0 -19 -15 -34t-34 -15t-34 15t-15 34zM373 713q0 20 14.5 35t33.5 15q20 0 34.5 -15t14.5 -35q0 -19 -15 -34t-34 -15t-33.5 14.5t-14.5 34.5zM338 -9q-133 0 -215.5 89t-82.5 219q0 129 82.5 217.5t215.5 88.5 t215.5 -88.5t82.5 -217.5q0 -130 -82.5 -219t-215.5 -89zM338 67q97 0 157 67.5t60 164.5q0 96 -60.5 163.5t-156.5 67.5t-156 -67.5t-60 -163.5q0 -97 60 -164.5t156 -67.5z" />
<glyph unicode="&#xd7;" horiz-adv-x="497" d="M56 145l148 155l-148 155l46 45l147 -154l148 154l45 -45l-148 -155l148 -155l-45 -45l-148 153l-147 -153z" />
<glyph unicode="&#xd8;" horiz-adv-x="676" d="M679 600l-105 -108q62 -81 62 -193q0 -130 -82.5 -219t-215.5 -89q-111 0 -189 64l-54 -55h-96l103 105q-62 82 -62 194q0 129 82.5 217.5t215.5 88.5q111 0 189 -64l57 59h95zM122 299q0 -75 37 -135l312 320q-56 46 -133 46q-96 0 -156 -67.5t-60 -163.5zM555 299 q0 74 -38 134l-312 -320q56 -46 133 -46q97 0 157 67.5t60 164.5z" />
<glyph unicode="&#xd9;" horiz-adv-x="631" d="M193 768l94 14l50 -147h-55zM316 -9q-114 0 -179.5 73t-65.5 193v343h80v-343q0 -86 42.5 -138t122.5 -52t122 52t42 138v343h80v-343q0 -120 -65 -193t-179 -73z" />
<glyph unicode="&#xda;" horiz-adv-x="631" d="M341 635h-56l53 145l94 -13zM316 -9q-114 0 -179.5 73t-65.5 193v343h80v-343q0 -86 42.5 -138t122.5 -52t122 52t42 138v343h80v-343q0 -120 -65 -193t-179 -73z" />
<glyph unicode="&#xdb;" horiz-adv-x="631" d="M312 725l-53 -61h-68l88 112h64l90 -112h-69zM316 -9q-114 0 -179.5 73t-65.5 193v343h80v-343q0 -86 42.5 -138t122.5 -52t122 52t42 138v343h80v-343q0 -120 -65 -193t-179 -73z" />
<glyph unicode="&#xdc;" horiz-adv-x="631" d="M180 713q0 20 14.5 35t34.5 15q19 0 34 -15t15 -35q0 -19 -15 -34t-34 -15t-34 15t-15 34zM345 713q0 20 14.5 35t33.5 15q20 0 34.5 -15t14.5 -35q0 -19 -15 -34t-34 -15t-33.5 14.5t-14.5 34.5zM316 -9q-114 0 -179.5 73t-65.5 193v343h80v-343q0 -86 42.5 -138 t122.5 -52t122 52t42 138v343h80v-343q0 -120 -65 -193t-179 -73z" />
<glyph unicode="&#xdd;" horiz-adv-x="532" d="M295 635h-56l53 145l94 -13zM435 600h91l-220 -370v-230h-80v230l-219 370h91l149 -257l19 -41h2l20 41z" />
<glyph unicode="&#xde;" horiz-adv-x="577" d="M159 503h161q108 0 169 -52t61 -149q0 -101 -63 -155t-171 -54h-157v-93h-80v600h80v-97zM468 300q0 64 -40.5 97t-110.5 33h-158v-264h158q151 0 151 134z" />
<glyph unicode="&#xdf;" horiz-adv-x="498" d="M237 332q107 16 107 112q0 41 -26 67.5t-70 26.5q-46 0 -75.5 -31t-29.5 -88v-419h-78v407q0 98 48.5 149t140.5 51q79 0 126.5 -45.5t47.5 -119.5q0 -89 -72 -126q50 -15 77 -57t27 -93q0 -82 -51.5 -128.5t-143.5 -46.5q-21 0 -39 2t-26 5l-7 2l8 59l3 -1q2 0 7 -0.5 t11.5 -1.5t16.5 -1.5t20 -0.5q55 0 88 30t33 79q0 53 -33 82.5t-88 29.5h-22v57z" />
<glyph unicode="&#xe0;" horiz-adv-x="462" d="M114 630l94 14l50 -147h-55zM402 0h-55l-9 57h-5q-45 -67 -143 -67q-74 0 -117 38t-43 96q0 63 49.5 100t142.5 37q60 0 104 -16v15q0 102 -116 102q-29 0 -58.5 -8t-43.5 -16l-15 -9l-29 63q61 38 154 38q94 0 139 -45t45 -126v-259zM326 188q-40 19 -97 19 q-121 0 -121 -80q0 -34 25 -55.5t71 -21.5q53 0 87.5 31.5t34.5 76.5v30z" />
<glyph unicode="&#xe1;" horiz-adv-x="462" d="M254 497h-56l53 145l94 -13zM402 0h-55l-9 57h-5q-45 -67 -143 -67q-74 0 -117 38t-43 96q0 63 49.5 100t142.5 37q60 0 104 -16v15q0 102 -116 102q-29 0 -58.5 -8t-43.5 -16l-15 -9l-29 63q61 38 154 38q94 0 139 -45t45 -126v-259zM326 188q-40 19 -97 19 q-121 0 -121 -80q0 -34 25 -55.5t71 -21.5q53 0 87.5 31.5t34.5 76.5v30z" />
<glyph unicode="&#xe2;" horiz-adv-x="462" d="M224 557l-53 -61h-68l88 112h64l90 -112h-69zM402 0h-55l-9 57h-5q-45 -67 -143 -67q-74 0 -117 38t-43 96q0 63 49.5 100t142.5 37q60 0 104 -16v15q0 102 -116 102q-29 0 -58.5 -8t-43.5 -16l-15 -9l-29 63q61 38 154 38q94 0 139 -45t45 -126v-259zM326 188 q-40 19 -97 19q-121 0 -121 -80q0 -34 25 -55.5t71 -21.5q53 0 87.5 31.5t34.5 76.5v30z" />
<glyph unicode="&#xe3;" horiz-adv-x="462" d="M299 495q-34 0 -79.5 28t-63.5 28q-14 0 -23 -6.5t-13 -13.5t-8 -21l-4 -16l-56 6l5 28q19 85 90 85q32 0 77.5 -28.5t64.5 -28.5q36 0 45 43l3 15l56 -6l-5 -26q-15 -87 -89 -87zM402 0h-55l-9 57h-5q-45 -67 -143 -67q-74 0 -117 38t-43 96q0 63 49.5 100t142.5 37 q60 0 104 -16v15q0 102 -116 102q-29 0 -58.5 -8t-43.5 -16l-15 -9l-29 63q61 38 154 38q94 0 139 -45t45 -126v-259zM326 188q-40 19 -97 19q-121 0 -121 -80q0 -34 25 -55.5t71 -21.5q53 0 87.5 31.5t34.5 76.5v30z" />
<glyph unicode="&#xe4;" horiz-adv-x="462" d="M93 542q0 20 14.5 35t34.5 15q19 0 34 -15t15 -35q0 -19 -15 -34t-34 -15q-20 0 -34.5 14.5t-14.5 34.5zM258 542q0 20 14.5 35t33.5 15q20 0 34.5 -15t14.5 -35t-14.5 -34.5t-34.5 -14.5q-19 0 -33.5 14.5t-14.5 34.5zM402 0h-55l-9 57h-5q-45 -67 -143 -67 q-74 0 -117 38t-43 96q0 63 49.5 100t142.5 37q60 0 104 -16v15q0 102 -116 102q-29 0 -58.5 -8t-43.5 -16l-15 -9l-29 63q61 38 154 38q94 0 139 -45t45 -126v-259zM326 188q-40 19 -97 19q-121 0 -121 -80q0 -34 25 -55.5t71 -21.5q53 0 87.5 31.5t34.5 76.5v30z" />
<glyph unicode="&#xe5;" horiz-adv-x="462" d="M121 584q0 39 29.5 63t76.5 24q46 0 75 -24t29 -63t-29 -63.5t-75 -24.5q-47 0 -76.5 24.5t-29.5 63.5zM280 584q0 41 -53 41q-55 0 -55 -41q0 -42 55 -42q53 0 53 42zM402 0h-55l-9 57h-5q-45 -67 -143 -67q-74 0 -117 38t-43 96q0 63 49.5 100t142.5 37q60 0 104 -16 v15q0 102 -116 102q-29 0 -58.5 -8t-43.5 -16l-15 -9l-29 63q61 38 154 38q94 0 139 -45t45 -126v-259zM326 188q-40 19 -97 19q-121 0 -121 -80q0 -34 25 -55.5t71 -21.5q53 0 87.5 31.5t34.5 76.5v30z" />
<glyph unicode="&#xe6;" horiz-adv-x="746" d="M692 39q-5 -6 -15.5 -14t-49.5 -22t-86 -14q-116 0 -173 81q-52 -80 -170 -80q-83 0 -126 37.5t-43 95.5q0 63 48 100t140 37q58 0 109 -17v16q0 104 -116 104q-29 0 -58 -8.5t-44 -16.5l-15 -9l-29 63q62 38 153 38q114 0 158 -71q55 71 151 71q88 0 137.5 -58.5 t49.5 -150.5l-1 -20h-308l1 -4q3 -68 41.5 -105t99.5 -37q33 0 62.5 9.5t41.5 19.5l13 10zM524 365q-97 0 -116 -105h225q-14 105 -109 105zM202 50q58 0 91 31.5t33 77.5v27q-45 19 -102 19q-116 0 -116 -80q0 -34 24 -54.5t70 -20.5z" />
<glyph unicode="&#xe7;" horiz-adv-x="410" d="M201 -54l21 46q-83 8 -133.5 67t-50.5 150q0 98 58.5 159.5t152.5 61.5q41 0 73 -9t44 -19l11 -9l-23 -59q-39 30 -100 30q-59 0 -97.5 -41.5t-38.5 -113.5t38.5 -112.5t97.5 -40.5q27 0 52 7.5t36 14.5l12 8l22 -59q-31 -32 -109 -36h-3l-11 -28q28 -1 46 -17.5 t18 -46.5q0 -32 -21 -51.5t-59 -19.5q-23 0 -41.5 7t-25.5 15l-8 7l21 30l3 -3q3 -2 7.5 -4.5t10.5 -5.5t14 -5t17 -2q41 0 41 33q0 31 -40 31l-21 -2z" />
<glyph unicode="&#xe8;" horiz-adv-x="458" d="M271 497h-55l-89 133l94 14zM424 221v-20h-308q2 -71 40.5 -108.5t100.5 -37.5q33 0 62.5 9.5t42.5 19.5l12 10l29 -56q-5 -5 -15.5 -13.5t-49 -22t-85.5 -13.5q-99 0 -157 60.5t-58 159.5q0 97 54.5 159t144.5 62q89 0 138 -58.5t49 -150.5zM121 260h224 q-14 105 -109 105q-97 0 -115 -105z" />
<glyph unicode="&#xe9;" horiz-adv-x="458" d="M358 629l-91 -132h-56l53 145zM424 221v-20h-308q2 -71 40.5 -108.5t100.5 -37.5q33 0 62.5 9.5t42.5 19.5l12 10l29 -56q-5 -5 -15.5 -13.5t-49 -22t-85.5 -13.5q-99 0 -157 60.5t-58 159.5q0 97 54.5 159t144.5 62q89 0 138 -58.5t49 -150.5zM121 260h224 q-14 105 -109 105q-97 0 -115 -105z" />
<glyph unicode="&#xea;" horiz-adv-x="458" d="M237 557l-53 -61h-68l88 112h64l90 -112h-69zM424 221v-20h-308q2 -71 40.5 -108.5t100.5 -37.5q33 0 62.5 9.5t42.5 19.5l12 10l29 -56q-5 -5 -15.5 -13.5t-49 -22t-85.5 -13.5q-99 0 -157 60.5t-58 159.5q0 97 54.5 159t144.5 62q89 0 138 -58.5t49 -150.5zM121 260 h224q-14 105 -109 105q-97 0 -115 -105z" />
<glyph unicode="&#xeb;" horiz-adv-x="458" d="M155 493q-19 0 -34 14.5t-15 34.5t14.5 35t34.5 15q19 0 34 -15t15 -35q0 -19 -15 -34t-34 -15zM319 493q-19 0 -33.5 14.5t-14.5 34.5t14.5 35t33.5 15q20 0 34.5 -15t14.5 -35t-15 -34.5t-34 -14.5zM424 221v-20h-308q2 -71 40.5 -108.5t100.5 -37.5q33 0 62.5 9.5 t42.5 19.5l12 10l29 -56q-5 -5 -15.5 -13.5t-49 -22t-85.5 -13.5q-99 0 -157 60.5t-58 159.5q0 97 54.5 159t144.5 62q89 0 138 -58.5t49 -150.5zM121 260h224q-14 105 -109 105q-97 0 -115 -105z" />
<glyph unicode="&#xec;" horiz-adv-x="211" d="M-5 630l94 14l50 -147h-55zM66 420h79v-420h-79v420z" />
<glyph unicode="&#xed;" horiz-adv-x="211" d="M135 497h-56l53 145l94 -13zM66 420h79v-420h-79v420z" />
<glyph unicode="&#xee;" horiz-adv-x="211" d="M105 557l-53 -61h-68l88 112h64l90 -112h-69zM66 420h79v-420h-79v420z" />
<glyph unicode="&#xef;" horiz-adv-x="211" d="M-26 542q0 20 14.5 35t34.5 15q19 0 34 -15t15 -35q0 -19 -15 -34t-34 -15t-34 14.5t-15 34.5zM139 542q0 20 14.5 35t33.5 15q20 0 34.5 -15t14.5 -35t-15 -34.5t-34 -14.5t-33.5 14.5t-14.5 34.5zM66 420h79v-420h-79v420z" />
<glyph unicode="&#xf0;" horiz-adv-x="502" d="M251 -10q-99 0 -156 59.5t-57 160.5q0 99 57.5 159.5t155.5 60.5q18 0 50 -6v5q-13 17 -26 38l-45 70l-117 -73l-27 46l116 71l-84 136v11h74l69 -110l121 74l27 -46l-119 -74l125 -200q47 -78 48 -155v-7q0 -101 -57 -160.5t-155 -59.5zM384 210q0 73 -37.5 113.5 t-95.5 40.5q-59 0 -96 -40.5t-37 -113.5q0 -72 37 -113.5t96 -41.5q58 0 95.5 41.5t37.5 113.5z" />
<glyph unicode="&#xf1;" horiz-adv-x="511" d="M331 495q-34 0 -79.5 28t-63.5 28q-14 0 -23 -6.5t-13 -13.5t-8 -21l-4 -16l-56 6l5 28q19 85 90 85q32 0 77.5 -28.5t64.5 -28.5q36 0 45 43l3 15l56 -6l-5 -26q-15 -87 -89 -87zM65 420h54l8 -61h5q46 71 145 71q81 0 127.5 -52.5t46.5 -139.5v-238h-78v230 q0 59 -30 96t-84 37t-84 -35t-32 -77v-251h-78v420z" />
<glyph unicode="&#xf2;" horiz-adv-x="500" d="M141 630l94 14l50 -147h-55zM463 208q0 -98 -61.5 -158t-151.5 -60q-91 0 -152 60t-61 158q0 99 61.5 160.5t151.5 61.5t151.5 -62t61.5 -160zM250 53q57 0 96 42.5t39 113.5q0 70 -39.5 114t-95.5 44q-57 0 -96.5 -44t-39.5 -114q0 -71 39.5 -113.5t96.5 -42.5z" />
<glyph unicode="&#xf3;" horiz-adv-x="500" d="M281 497h-56l53 145l94 -13zM463 208q0 -98 -61.5 -158t-151.5 -60q-91 0 -152 60t-61 158q0 99 61.5 160.5t151.5 61.5t151.5 -62t61.5 -160zM250 53q57 0 96 42.5t39 113.5q0 70 -39.5 114t-95.5 44q-57 0 -96.5 -44t-39.5 -114q0 -71 39.5 -113.5t96.5 -42.5z" />
<glyph unicode="&#xf4;" horiz-adv-x="500" d="M251 557l-53 -61h-68l88 112h64l90 -112h-69zM463 208q0 -98 -61.5 -158t-151.5 -60q-91 0 -152 60t-61 158q0 99 61.5 160.5t151.5 61.5t151.5 -62t61.5 -160zM250 53q57 0 96 42.5t39 113.5q0 70 -39.5 114t-95.5 44q-57 0 -96.5 -44t-39.5 -114q0 -71 39.5 -113.5 t96.5 -42.5z" />
<glyph unicode="&#xf5;" horiz-adv-x="500" d="M326 495q-34 0 -79.5 28t-63.5 28q-14 0 -23 -6.5t-13 -13.5t-8 -21l-4 -16l-56 6l5 28q19 85 90 85q32 0 77.5 -28.5t64.5 -28.5q36 0 45 43l3 15l56 -6l-5 -26q-15 -87 -89 -87zM463 208q0 -98 -61.5 -158t-151.5 -60q-91 0 -152 60t-61 158q0 99 61.5 160.5 t151.5 61.5t151.5 -62t61.5 -160zM250 53q57 0 96 42.5t39 113.5q0 70 -39.5 114t-95.5 44q-57 0 -96.5 -44t-39.5 -114q0 -71 39.5 -113.5t96.5 -42.5z" />
<glyph unicode="&#xf6;" horiz-adv-x="500" d="M120 542q0 20 14.5 35t34.5 15q19 0 34 -15t15 -35q0 -19 -15 -34t-34 -15t-34 14.5t-15 34.5zM285 542q0 20 14.5 35t33.5 15q20 0 34.5 -15t14.5 -35t-15 -34.5t-34 -14.5t-33.5 14.5t-14.5 34.5zM463 208q0 -98 -61.5 -158t-151.5 -60q-91 0 -152 60t-61 158 q0 99 61.5 160.5t151.5 61.5t151.5 -62t61.5 -160zM250 53q57 0 96 42.5t39 113.5q0 70 -39.5 114t-95.5 44q-57 0 -96.5 -44t-39.5 -114q0 -71 39.5 -113.5t96.5 -42.5z" />
<glyph unicode="&#xf7;" horiz-adv-x="488" d="M190 453q0 23 15.5 39t38.5 16q22 0 38 -16t16 -39q0 -22 -16 -37.5t-38 -15.5q-23 0 -38.5 15.5t-15.5 37.5zM56 329h377v-66h-377v66zM190 144q0 22 16 38t38 16t38 -16t16 -38q0 -23 -16 -38.5t-38 -15.5q-23 0 -38.5 15.5t-15.5 38.5z" />
<glyph unicode="&#xf8;" horiz-adv-x="501" d="M464 208q0 -98 -61.5 -158t-151.5 -60q-80 0 -134 45l-33 -35h-61l63 65q-48 58 -48 143q0 99 61.5 160.5t151.5 61.5q76 0 129 -44l31 34h61l-61 -63q53 -63 53 -149zM115 209q0 -52 23 -90l195 217q-36 31 -82 31q-57 0 -96.5 -44t-39.5 -114zM251 53q57 0 96 42.5 t39 113.5q0 53 -26 95l-197 -218q36 -33 88 -33z" />
<glyph unicode="&#xf9;" horiz-adv-x="508" d="M137 630l94 14l50 -147h-55zM365 420h78v-420h-50l-14 59h-3q-46 -69 -146 -69q-80 0 -125 52.5t-45 139.5v238h78v-230q0 -60 28 -97t81 -37q56 0 86 35.5t32 77.5v251z" />
<glyph unicode="&#xfa;" horiz-adv-x="508" d="M277 497h-56l53 145l94 -13zM365 420h78v-420h-50l-14 59h-3q-46 -69 -146 -69q-80 0 -125 52.5t-45 139.5v238h78v-230q0 -60 28 -97t81 -37q56 0 86 35.5t32 77.5v251z" />
<glyph unicode="&#xfb;" horiz-adv-x="508" d="M247 557l-53 -61h-68l88 112h64l90 -112h-69zM365 420h78v-420h-50l-14 59h-3q-46 -69 -146 -69q-80 0 -125 52.5t-45 139.5v238h78v-230q0 -60 28 -97t81 -37q56 0 86 35.5t32 77.5v251z" />
<glyph unicode="&#xfc;" horiz-adv-x="508" d="M116 542q0 20 14.5 35t34.5 15q19 0 34 -15t15 -35q0 -19 -15 -34t-34 -15t-34 14.5t-15 34.5zM281 542q0 20 14.5 35t33.5 15q20 0 34.5 -15t14.5 -35t-15 -34.5t-34 -14.5t-33.5 14.5t-14.5 34.5zM365 420h78v-420h-50l-14 59h-3q-46 -69 -146 -69q-80 0 -125 52.5 t-45 139.5v238h78v-230q0 -60 28 -97t81 -37q56 0 86 35.5t32 77.5v251z" />
<glyph unicode="&#xfd;" horiz-adv-x="454" d="M257 497h-56l53 145l94 -13zM190 -156h-82l84 179l-181 397h86l124 -298q7 -23 7 -30h5q0 10 6 30l123 298h81z" />
<glyph unicode="&#xfe;" horiz-adv-x="523" d="M143 81v-237h-78v756h78v-259h4q1 4 4 10t14.5 21t26.5 27t41 21.5t57 9.5q84 0 139.5 -61t55.5 -159q0 -97 -55.5 -158.5t-139.5 -61.5q-31 0 -57.5 9.5t-41.5 22.5t-25.5 26.5t-14.5 23.5l-4 9h-4zM140 210q0 -71 38.5 -112.5t95.5 -41.5t94.5 43t37.5 111 q0 67 -37.5 110.5t-94.5 43.5t-95.5 -41.5t-38.5 -112.5z" />
<glyph unicode="&#xff;" horiz-adv-x="454" d="M96 542q0 20 14.5 35t34.5 15q19 0 34 -15t15 -35q0 -19 -15 -34t-34 -15t-34 14.5t-15 34.5zM261 542q0 20 14.5 35t33.5 15q20 0 34.5 -15t14.5 -35t-15 -34.5t-34 -14.5t-33.5 14.5t-14.5 34.5zM190 -156h-82l84 179l-181 397h86l124 -298q7 -23 7 -30h5q0 10 6 30 l123 298h81z" />
<glyph unicode="&#x152;" horiz-adv-x="1018" d="M978 527h-343v-188h293v-71h-293v-195h343v-73h-423v81q-85 -90 -217 -90q-133 0 -215.5 89t-82.5 219q0 129 82.5 217.5t215.5 88.5t217 -90v85h423v-73zM338 67q97 0 157 67.5t60 164.5q0 96 -60.5 163.5t-156.5 67.5t-156 -67.5t-60 -163.5q0 -97 60 -164.5t156 -67.5 z" />
<glyph unicode="&#x153;" horiz-adv-x="810" d="M757 38q-5 -5 -15.5 -13.5t-49 -22t-85.5 -13.5q-125 0 -181 92q-60 -91 -176 -91q-91 0 -152 60t-61 158q0 99 61.5 160.5t151.5 61.5q54 0 100 -24t76 -68q53 92 166 92q88 0 137 -58.5t49 -150.5v-20h-308v-6q4 -68 42.5 -104t99.5 -36q33 0 62 9.5t42 19.5l12 10z M250 53q57 0 96 42.5t39 113.5q0 70 -39.5 114t-95.5 44q-57 0 -96.5 -44t-39.5 -114q0 -71 39.5 -113.5t96.5 -42.5zM590 365q-97 0 -116 -105h225q-14 105 -109 105z" />
<glyph unicode="&#x178;" horiz-adv-x="532" d="M134 713q0 20 14.5 35t34.5 15q19 0 34 -15t15 -35q0 -19 -15 -34t-34 -15t-34 15t-15 34zM299 713q0 20 14.5 35t33.5 15q20 0 34.5 -15t14.5 -35q0 -19 -15 -34t-34 -15t-33.5 14.5t-14.5 34.5zM435 600h91l-220 -370v-230h-80v230l-219 370h91l149 -257l19 -41h2 l20 41z" />
<glyph unicode="&#x2c6;" horiz-adv-x="371" d="M192 725l-53 -61h-68l88 112h64l90 -112h-69z" />
<glyph unicode="&#x2dc;" horiz-adv-x="485" d="M314 664q-34 0 -79.5 28t-63.5 28q-14 0 -23 -6.5t-13 -13.5t-8 -21l-4 -16l-56 6l5 28q19 85 90 85q32 0 77.5 -28.5t64.5 -28.5q36 0 45 43l3 15l56 -6l-5 -26q-15 -87 -89 -87z" />
<glyph unicode="&#x2000;" horiz-adv-x="399" />
<glyph unicode="&#x2001;" horiz-adv-x="798" />
<glyph unicode="&#x2002;" horiz-adv-x="399" />
<glyph unicode="&#x2003;" horiz-adv-x="798" />
<glyph unicode="&#x2004;" horiz-adv-x="266" />
<glyph unicode="&#x2005;" horiz-adv-x="199" />
<glyph unicode="&#x2006;" horiz-adv-x="133" />
<glyph unicode="&#x2007;" horiz-adv-x="133" />
<glyph unicode="&#x2008;" horiz-adv-x="99" />
<glyph unicode="&#x2009;" horiz-adv-x="159" />
<glyph unicode="&#x200a;" horiz-adv-x="44" />
<glyph unicode="&#x2010;" horiz-adv-x="395" d="M57 262h280v-66h-280v66z" />
<glyph unicode="&#x2011;" horiz-adv-x="395" d="M57 262h280v-66h-280v66z" />
<glyph unicode="&#x2012;" horiz-adv-x="395" d="M57 262h280v-66h-280v66z" />
<glyph unicode="&#x2013;" horiz-adv-x="463" d="M60 321h335v-66h-335v66z" />
<glyph unicode="&#x2014;" horiz-adv-x="716" d="M60 321h588v-66h-588v66z" />
<glyph unicode="&#x2018;" horiz-adv-x="216" d="M46 444q0 62 33 103.5t91 52.5l13 -44q-34 -8 -54 -27t-22 -43q18 -3 29.5 -17t11.5 -32q0 -22 -15 -37t-36 -15t-36 15t-15 37v7z" />
<glyph unicode="&#x2019;" horiz-adv-x="219" d="M44 430q33 7 53.5 25.5t22.5 43.5q-17 3 -29 17t-12 33q0 21 15 36t36 15t36 -15t15 -36v-8q0 -61 -33 -103t-91 -53z" />
<glyph unicode="&#x201a;" horiz-adv-x="206" d="M16 -79q69 17 76 70q-18 3 -30 16.5t-12 32.5q0 22 15 37t37 15q21 0 36 -15t15 -37v-7q0 -62 -33 -103.5t-91 -52.5z" />
<glyph unicode="&#x201c;" horiz-adv-x="368" d="M46 444q0 62 33 103.5t91 52.5l13 -44q-34 -8 -54 -27t-22 -43q18 -3 29.5 -17t11.5 -32q0 -22 -15 -37t-36 -15t-36 15t-15 37v7zM198 444q0 62 33 103.5t91 52.5l13 -44q-34 -8 -54 -27t-22 -43q18 -3 29.5 -17t11.5 -32q0 -22 -15 -37t-36 -15t-36 15t-15 37v7z" />
<glyph unicode="&#x201d;" horiz-adv-x="369" d="M180 541q0 -61 -33 -103t-90 -53l-14 45q33 7 53.5 25.5t22.5 43.5q-17 3 -29 17t-12 33q0 21 15 36t36 15q22 0 36.5 -15t14.5 -36v-8zM193 430q33 7 53.5 25.5t23.5 43.5q-18 3 -30 17t-12 33q0 21 15 36t36 15q22 0 37 -15t15 -36v-8q0 -61 -33 -103t-91 -53z" />
<glyph unicode="&#x201e;" horiz-adv-x="365" d="M16 -79q69 17 76 70q-18 3 -30 16.5t-12 32.5q0 22 15 37t37 15q21 0 36 -15t15 -37v-7q0 -62 -33 -103.5t-91 -52.5zM167 -79q33 8 53.5 27t22.5 43q-18 3 -30 17t-12 32q0 22 15 37t37 15q21 0 36 -15t15 -37v-7q0 -62 -33 -103.5t-91 -52.5z" />
<glyph unicode="&#x2022;" horiz-adv-x="314" d="M157 300q31 0 54 -23t23 -54t-22.5 -53.5t-54.5 -22.5t-55 22.5t-23 53.5q0 32 23 54.5t55 22.5z" />
<glyph unicode="&#x2026;" horiz-adv-x="715" d="M54 51q0 25 18 43t43 18t43 -18t18 -43t-18 -43t-43 -18t-43 18t-18 43zM297 51q0 26 17.5 43.5t42.5 17.5q26 0 44 -18t18 -43t-18 -43t-44 -18q-25 0 -42.5 17.5t-17.5 43.5zM539 51q0 25 17.5 43t43.5 18q25 0 43 -18t18 -43t-18 -43t-43 -18q-26 0 -43.5 18t-17.5 43 z" />
<glyph unicode="&#x202f;" horiz-adv-x="159" />
<glyph unicode="&#x2039;" horiz-adv-x="271" d="M40 220l121 188h68v-10l-118 -186v-5l118 -189v-10h-68l-121 189v23z" />
<glyph unicode="&#x203a;" horiz-adv-x="270" d="M231 197l-122 -189h-68v10l119 189v5l-119 186v10h68l122 -188v-23z" />
<glyph unicode="&#x205f;" horiz-adv-x="199" />
<glyph unicode="&#x20ac;" horiz-adv-x="569" d="M397 201h-197q34 -140 163 -140q36 0 67 14t44 28l13 14l40 -58q-6 -8 -17.5 -20t-54 -32t-93.5 -20q-98 0 -160.5 59t-84.5 155h-78v59h68q-2 14 -2 42q0 15 2 45h-68v60h78q23 93 85.5 149.5t159.5 56.5q32 0 61 -7.5t47 -18t32 -21t20 -18.5l6 -7l-41 -61 q-5 6 -14.5 16t-41.5 26t-68 16q-127 0 -162 -131h196v-60h-207q-2 -30 -2 -45q0 -29 2 -42h207v-59z" />
<glyph unicode="&#x2122;" horiz-adv-x="709" d="M278 552h-96v-271h-53v271h-96v48h245v-48zM335 281v319h39l113 -147l116 147h38v-319h-54v219l-91 -117h-16l-90 115v-217h-55z" />
<glyph unicode="&#x25fc;" horiz-adv-x="420" d="M0 420h420v-420h-420v420z" />
</font>
</defs>
</svg>
