<?xml version="1.0" standalone="no"?>
<!DOCTYPE svg PUBLIC "-//W3C//DTD SVG 1.1//EN" "http://www.w3.org/Graphics/SVG/1.1/DTD/svg11.dtd" >
<svg xmlns="http://www.w3.org/2000/svg">
<metadata></metadata>
<defs>
<font id="textalight" horiz-adv-x="679" >
<font-face units-per-em="1000" ascent="800" descent="-200" />
<missing-glyph horiz-adv-x="234" />
<glyph horiz-adv-x="0" />
<glyph horiz-adv-x="333" />
<glyph horiz-adv-x="0" />
<glyph horiz-adv-x="0" />
<glyph unicode="&#xd;" horiz-adv-x="47" />
<glyph unicode=" "  horiz-adv-x="234" />
<glyph unicode="&#x09;" horiz-adv-x="234" />
<glyph unicode="&#xa0;" horiz-adv-x="234" />
<glyph unicode="!" horiz-adv-x="188" d="M108 148h-28l-11 452h50zM58 29q0 15 10.5 25.5t25.5 10.5t25.5 -10.5t10.5 -25.5t-10.5 -26t-25.5 -11t-25.5 11t-10.5 26z" />
<glyph unicode="&#x22;" horiz-adv-x="285" d="M84 475h-26l16 209h48zM204 475h-26l17 209h48z" />
<glyph unicode="#" horiz-adv-x="602" d="M447 414h120l-6 -31h-121l-41 -186h115l-6 -31h-116l-36 -166h-34l36 166h-168l-36 -166h-34l36 166h-122l7 31h122l41 186h-117l7 31h117l38 169h34l-38 -169h167l38 169h35zM197 197h168l41 186h-168z" />
<glyph unicode="$" horiz-adv-x="506" d="M71 87q6 -6 18.5 -15.5t55 -25.5t89.5 -18v265q-94 28 -139.5 63t-45.5 100q0 68 50.5 109.5t134.5 46.5v104h38v-103q56 -2 100 -16t60 -27l16 -13l-24 -36q-6 5 -17 13t-50.5 21.5t-84.5 15.5v-244q97 -30 144 -69t47 -108t-48 -113t-143 -50v-94h-38v94q-35 1 -67 8.5 t-53 17t-37 19t-23 16.5l-7 6zM93 457q0 -45 34 -70t107 -49v233q-62 -5 -101.5 -34.5t-39.5 -79.5zM419 150q0 50 -35.5 78.5t-111.5 52.5v-253q74 5 110.5 37t36.5 85z" />
<glyph unicode="%" horiz-adv-x="647" d="M165 613q57 0 89.5 -43t32.5 -106q0 -62 -32.5 -105.5t-89.5 -43.5t-90 43.5t-33 105.5q0 63 32.5 106t90.5 43zM587 600l-477 -600h-48l475 600h50zM165 576q-39 0 -61 -31.5t-22 -80.5q0 -47 22 -79.5t61 -32.5q38 0 60.5 32.5t22.5 79.5q0 48 -22 80t-61 32zM481 290 q57 0 90 -43t33 -106q0 -62 -33 -105.5t-90 -43.5t-90 43.5t-33 105.5q0 63 33 106t90 43zM481 253q-39 0 -61 -31.5t-22 -80.5q0 -47 22 -79.5t61 -32.5t61 32.5t22 79.5q0 49 -22 80.5t-61 31.5z" />
<glyph unicode="&#x26;" horiz-adv-x="579" d="M531 283q-9 -103 -66 -184l99 -99h-61l-65 66q-73 -78 -183 -78q-92 0 -148 45.5t-56 116.5q0 62 35.5 100.5t99.5 72.5l-7 8q-37 39 -54.5 71.5t-17.5 73.5q0 60 40 98.5t105 38.5q64 0 103.5 -37.5t39.5 -96.5q0 -40 -22.5 -73t-48.5 -51t-71 -42l183 -184 q47 68 54 164zM150 476q0 -35 14.5 -60.5t50.5 -62.5q7 -7 10 -11q32 17 49 27t38 27.5t30.5 36.5t9.5 43q0 46 -27.5 73t-73.5 27q-44 0 -72.5 -27.5t-28.5 -72.5zM254 26q94 0 156 68l-194 199q-57 -31 -88 -62.5t-31 -79.5q0 -55 45 -90t112 -35z" />
<glyph unicode="'" horiz-adv-x="165" d="M84 475h-26l16 209h48z" />
<glyph unicode="(" horiz-adv-x="265" d="M88 287q0 -64 13.5 -124t30 -99t43.5 -78.5t41.5 -55.5t35.5 -38l-25 -28q-26 26 -40.5 41.5t-45.5 59t-49 84t-33 104.5t-15 134t15 134t33 105t48.5 83.5t46 58.5t40.5 41l25 -27q-21 -22 -35.5 -38t-41.5 -55.5t-43.5 -78.5t-30 -99t-13.5 -124z" />
<glyph unicode=")" horiz-adv-x="265" d="M177 287q0 64 -13.5 124t-30 99t-43.5 78.5t-41.5 55.5t-35.5 38l25 27q25 -25 40.5 -41t46 -58.5t48.5 -83.5t33 -105t15 -134t-15 -134t-33 -104.5t-49 -84t-45.5 -59t-40.5 -41.5l-25 28q21 22 35.5 38t41.5 55.5t43.5 78.5t30 99t13.5 124z" />
<glyph unicode="*" horiz-adv-x="395" d="M183 541l-134 29l16 47l124 -61l-15 140h48l-17 -140l125 61l16 -47l-134 -28l92 -106l-40 -29l-67 124l-66 -124l-40 29z" />
<glyph unicode="+" horiz-adv-x="483" d="M261 317h175v-37h-175v-176h-38v176h-176v37h176v181h38v-181z" />
<glyph unicode="," horiz-adv-x="197" d="M98 62q15 0 25.5 -10.5t10.5 -25.5v-10q0 -49 -27.5 -83t-78.5 -44l-7 28q33 7 54 27.5t22 47.5q-16 1 -25 11t-9 23q0 15 10.5 25.5t24.5 10.5z" />
<glyph unicode="-" horiz-adv-x="400" d="M63 248h273v-37h-273v37z" />
<glyph unicode="." horiz-adv-x="192" d="M96 -9q-14 0 -24.5 10.5t-10.5 24.5q0 15 10.5 25.5t24.5 10.5q15 0 25.5 -10.5t10.5 -25.5q0 -14 -10.5 -24.5t-25.5 -10.5z" />
<glyph unicode="/" horiz-adv-x="539" d="M22 -111l449 894h45l-448 -894h-46z" />
<glyph unicode="0" horiz-adv-x="584" d="M292 -9q-111 0 -176 88t-65 219q0 132 65 219.5t176 87.5t176 -87.5t65 -219.5q0 -131 -65 -219t-176 -88zM292 32q94 0 145.5 76.5t51.5 189.5t-51.5 189.5t-145.5 76.5t-145.5 -76.5t-51.5 -189.5t51.5 -189.5t145.5 -76.5z" />
<glyph unicode="1" horiz-adv-x="271" d="M13 600h183v-600h-43v560h-140v40z" />
<glyph unicode="2" horiz-adv-x="481" d="M48 32l266 259q36 35 50 66t14 72q0 59 -40.5 97t-105.5 38q-87 0 -164 -77l-25 33q3 3 8.5 9t23.5 20.5t38.5 26t52.5 20.5t66 9q89 0 139.5 -48.5t50.5 -126.5q0 -91 -71 -159l-238 -231h322v-40h-387v32z" />
<glyph unicode="3" horiz-adv-x="481" d="M159 303v36l206 221h-311v40h370v-35l-213 -225h33q87 -2 137 -46t50 -124q0 -78 -54.5 -128.5t-144.5 -50.5q-36 0 -69 8t-53.5 20t-36 24t-21.5 20l-7 8l27 30q2 -3 6 -7.5t19 -16.5t31.5 -21.5t44.5 -17t58 -7.5q71 0 114 39.5t43 99.5q0 63 -40.5 98t-113.5 35h-75z " />
<glyph unicode="4" horiz-adv-x="526" d="M25 183l339 417h34v-409h98v-40h-98v-151h-44v151h-329v32zM82 191h272v335l-263 -325l-9 -8v-2z" />
<glyph unicode="5" horiz-adv-x="475" d="M122 560l-7 -220q56 14 113 14q93 0 148 -48t55 -127q0 -87 -56 -137.5t-147 -50.5q-35 0 -66.5 8t-52 20t-35.5 24t-22 20l-7 8l27 30q2 -3 6.5 -7.5t19 -16.5t31 -21t43 -16.5t55.5 -7.5q72 0 116 38.5t44 108.5q0 62 -44.5 98.5t-115.5 36.5q-38 0 -73.5 -6t-52 -12 t-16.5 -7l-11 9l8 302h323v-40h-283z" />
<glyph unicode="6" horiz-adv-x="517" d="M275 363q88 0 143 -54t55 -132q0 -77 -56.5 -131.5t-143.5 -54.5q-101 0 -160.5 74t-59.5 228q0 155 64.5 233.5t163.5 78.5q35 0 65.5 -9t49.5 -21.5t33 -24.5t19 -21l6 -9l-27 -31q-2 3 -5.5 8t-17 18t-29 23t-41 18t-53.5 8q-81 0 -133 -65.5t-52 -204.5q0 -28 2 -39 q21 48 67.5 78t109.5 30zM275 322q-67 0 -114 -39.5t-55 -100.5q33 -150 167 -150q67 0 111.5 40.5t44.5 104.5q0 62 -43 103.5t-111 41.5z" />
<glyph unicode="7" horiz-adv-x="423" d="M27 600h383v-32l-269 -568h-53l268 560h-329v40z" />
<glyph unicode="8" horiz-adv-x="508" d="M254 -9q-90 0 -146 49t-56 122q0 52 30.5 92t80.5 59q-97 39 -97 134q0 70 51.5 114t136.5 44t136 -44t51 -114q0 -93 -97 -134q51 -19 81.5 -59.5t30.5 -91.5q0 -73 -56 -122t-146 -49zM254 331q66 0 104.5 32.5t38.5 83.5t-39.5 84t-103.5 33q-66 0 -105 -33t-39 -84 t38.5 -83.5t105.5 -32.5zM411 162q0 57 -45 93.5t-112 36.5q-68 0 -113 -37t-45 -93t44.5 -93t113.5 -37t113 37t44 93z" />
<glyph unicode="9" horiz-adv-x="518" d="M238 32q85 0 134.5 66t49.5 202q0 24 -3 47q-22 -49 -69 -79t-110 -30q-87 0 -142 54t-55 131q0 79 56 134.5t143 55.5q103 0 163 -76.5t60 -235.5q0 -154 -62.5 -232t-164.5 -78q-32 0 -61.5 8t-48 19.5t-32.5 22.5t-20 19l-6 8l26 31q6 -8 16.5 -19t47.5 -29.5 t78 -18.5zM240 280q67 0 115.5 40t54.5 101q-38 151 -168 151q-66 0 -111 -43t-45 -106q0 -61 44 -102t110 -41z" />
<glyph unicode=":" horiz-adv-x="198" d="M85 367q-21 14 -7 35q5 9 15.5 11t19.5 -4q21 -14 7 -36q-6 -8 -16.5 -10t-18.5 4zM85 10q-9 5 -11 15.5t4 19.5q12 20 35 7q21 -14 7 -36q-6 -8 -16.5 -10t-18.5 4z" />
<glyph unicode=";" horiz-adv-x="235" d="M123 353q-14 0 -24.5 10t-10.5 25q0 14 10.5 24.5t24.5 10.5q15 0 25.5 -10.5t10.5 -24.5q0 -15 -10.5 -25t-25.5 -10zM46 -79q32 7 53.5 28t22.5 47q-16 1 -25 11t-9 24t10.5 24.5t24.5 10.5q15 0 25.5 -10.5t10.5 -24.5v-11q0 -49 -27.5 -83t-78.5 -44z" />
<glyph unicode="&#x3c;" horiz-adv-x="376" d="M42 306l265 202v-48l-219 -168l219 -167v-48l-265 202v27z" />
<glyph unicode="=" horiz-adv-x="458" d="M66 405h326v-37h-326v37zM66 214h326v-37h-326v37z" />
<glyph unicode="&#x3e;" horiz-adv-x="376" d="M333 279l-265 -202v48l220 167l-220 168v48l265 -202v-27z" />
<glyph unicode="?" horiz-adv-x="411" d="M30 560q6 5 18 13.5t52 22t85 13.5q87 0 138 -41t51 -112q0 -34 -12 -63t-30 -47.5t-39 -37t-39.5 -33t-31.5 -35t-14 -43.5l-1 -54h-29v62q0 30 15.5 55.5t37.5 45t44.5 39t38 47.5t15.5 61q0 52 -38.5 83.5t-105.5 31.5q-38 0 -72 -11t-49 -21l-15 -11zM158 24 q0 15 10.5 25.5t25.5 10.5t25.5 -10.5t10.5 -25.5t-10.5 -26t-25.5 -11t-25.5 11t-10.5 26z" />
<glyph unicode="@" horiz-adv-x="999" d="M746 51q-54 0 -89.5 31.5t-40.5 80.5h-3q-21 -39 -63.5 -71t-105.5 -32q-74 0 -122 51t-48 134q0 112 64.5 181t156.5 69q61 0 96 -27.5t48 -64.5l19 84h31l-31 -252q-3 -19 -3 -52q0 -43 26 -69.5t68 -26.5q73 0 117 64.5t44 164.5q0 74 -29 143.5t-80 123t-127.5 86 t-165.5 32.5q-123 0 -222 -58.5t-152.5 -154.5t-53.5 -209q0 -173 122.5 -298.5t301.5 -125.5q60 0 113.5 14t76.5 29l24 14l17 -32q-3 -3 -9.5 -7t-29 -14.5t-47.5 -19t-64.5 -15t-80.5 -6.5q-132 0 -239 64.5t-164.5 169.5t-57.5 226q0 124 57.5 228.5t165 168t242.5 63.5 q189 0 316 -123t127 -298q0 -114 -56 -190t-149 -76zM454 97q78 0 125.5 65.5t47.5 167.5q0 54 -36 91t-95 37q-74 0 -126.5 -58t-52.5 -151q0 -71 38 -111.5t99 -40.5z" />
<glyph unicode="A" horiz-adv-x="583" d="M563 0h-45l-65 158h-323l-65 -158h-44l250 600h42zM147 198h289l-144 350z" />
<glyph unicode="B" horiz-adv-x="597" d="M89 600h241q93 0 145 -41.5t52 -119.5q0 -103 -97 -134v-3q53 -13 85.5 -49.5t32.5 -90.5q0 -80 -55 -121t-149 -41h-255v600zM132 560v-238h198q72 0 112.5 30t40.5 85q0 62 -41 92.5t-112 30.5h-198zM132 281v-241h214q71 0 114.5 31.5t43.5 91.5q0 56 -43 86t-112 32 h-217z" />
<glyph unicode="C" horiz-adv-x="572" d="M539 71q-3 -3 -8 -8.5t-23.5 -19.5t-39.5 -24.5t-55 -19t-71 -8.5q-129 0 -212.5 88t-83.5 219q0 132 83.5 219.5t212.5 87.5q37 0 71 -8t56 -19.5t38.5 -23.5t24.5 -20l7 -8l-25 -33q-7 8 -20 20t-57.5 31.5t-93.5 19.5q-110 0 -181.5 -77.5t-71.5 -188.5 q0 -110 71.5 -188t181.5 -78q49 0 92 18t61 36l18 18z" />
<glyph unicode="D" horiz-adv-x="628" d="M580 300q0 -138 -86.5 -219t-223.5 -81h-181v600h181q137 0 223.5 -81t86.5 -219zM132 560v-520h137q115 0 191.5 71t76.5 189t-76.5 189t-191.5 71h-137z" />
<glyph unicode="E" horiz-adv-x="540" d="M449 283h-317v-243h365v-40h-408v600h408v-40h-365v-237h317v-40z" />
<glyph unicode="F" horiz-adv-x="525" d="M448 283h-316v-283h-43v600h408v-40h-365v-237h316v-40z" />
<glyph unicode="G" horiz-adv-x="641" d="M343 605q40 0 76.5 -8t60 -20t41 -24t25.5 -20l8 -8l-26 -33l-8 8t-22 17t-37 21.5t-52 17.5t-66 8q-115 0 -183.5 -77.5t-68.5 -188.5t67.5 -188.5t182.5 -77.5q98 0 158 63t61 170v14h-236v41h279v-35q0 -136 -70 -215t-192 -79q-132 0 -213 88t-81 219t82 219t214 88z " />
<glyph unicode="H" horiz-adv-x="639" d="M549 0h-43v279h-374v-279h-43v600h43v-280h374v280h43v-600z" />
<glyph unicode="I" horiz-adv-x="221" d="M132 0h-43v600h43v-600z" />
<glyph unicode="J" horiz-adv-x="418" d="M335 600v-414q0 -102 -47.5 -150.5t-133.5 -48.5q-38 0 -71 11t-46.5 20t-15.5 12l22 34q41 -36 108 -36q141 0 141 165v407h43z" />
<glyph unicode="K" horiz-adv-x="553" d="M132 242l351 358h47v-9l-233 -237l235 -345v-9h-44l-221 322l-135 -138v-184h-43v600h43v-358z" />
<glyph unicode="L" horiz-adv-x="483" d="M89 0v600h43v-560h329v-40h-372z" />
<glyph unicode="M" horiz-adv-x="722" d="M590 526l-219 -288h-20l-219 287v-525h-43v600h38l234 -307l235 307h37v-600h-43v526z" />
<glyph unicode="N" horiz-adv-x="664" d="M575 0h-38l-405 530v-530h-43v600h39l404 -529v529h43v-600z" />
<glyph unicode="O" d="M339 -9q-130 0 -211 88t-81 219t81 219t211 88q131 0 212 -88t81 -219t-81 -219t-212 -88zM339 32q113 0 181 77.5t68 188.5t-68 188.5t-181 77.5t-180.5 -77.5t-67.5 -188.5t67.5 -188.5t180.5 -77.5z" />
<glyph unicode="P" horiz-adv-x="570" d="M311 600q105 0 165 -53.5t60 -143.5q0 -93 -60.5 -148t-165.5 -55h-178v-200h-43v600h222zM493 402q0 73 -50 115.5t-132 42.5h-179v-319h179q83 0 132.5 42.5t49.5 118.5z" />
<glyph unicode="Q" d="M632 298q0 -100 -49 -177.5t-134 -109.5l81 -133h-49l-73 120q-31 -7 -69 -7q-130 0 -211 88t-81 219t81 219t211 88q131 0 212 -88t81 -219zM339 32q113 0 181 77.5t68 188.5t-68 188.5t-181 77.5t-180.5 -77.5t-67.5 -188.5t67.5 -188.5t180.5 -77.5z" />
<glyph unicode="R" horiz-adv-x="591" d="M311 600q107 0 166 -51.5t59 -145.5q0 -73 -40.5 -122t-109.5 -64v-3l159 -202v-12h-44l-164 209h-205v-209h-43v600h222zM492 402q0 76 -48.5 117t-132.5 41h-179v-311h190q75 0 122.5 40t47.5 113z" />
<glyph unicode="S" horiz-adv-x="505" d="M71 92q7 -7 20.5 -17t59.5 -26.5t97 -16.5q85 0 128 32t43 86t-40.5 83t-130.5 56q-50 15 -81.5 27.5t-61 32t-43.5 45.5t-14 60q0 71 56.5 111t149.5 40q61 0 109 -14t66 -28l18 -14l-24 -36q-2 2 -6.5 5.5t-20 12.5t-33.5 15.5t-47.5 12t-61.5 5.5q-70 0 -116 -27.5 t-46 -81.5q0 -46 40 -71.5t130 -53.5q102 -30 151.5 -69.5t49.5 -110.5q0 -70 -54.5 -114t-160.5 -44q-38 0 -72.5 7t-57 16.5t-40 19.5t-24.5 17l-8 7z" />
<glyph unicode="T" horiz-adv-x="507" d="M24 600h458v-40h-207v-560h-43v560h-208v40z" />
<glyph unicode="U" horiz-adv-x="627" d="M313 -8q-109 0 -170.5 71t-61.5 190v347h43v-347q0 -101 48.5 -161t140.5 -60q93 0 141.5 60t48.5 161v347h43v-347q0 -120 -61 -190.5t-172 -70.5z" />
<glyph unicode="V" horiz-adv-x="583" d="M21 600h44l227 -547l226 547h45l-250 -600h-42z" />
<glyph unicode="W" horiz-adv-x="786" d="M393 531l-151 -531h-37l-181 600h45l152 -531l151 531h42l150 -531l153 531h45l-181 -600h-37z" />
<glyph unicode="X" horiz-adv-x="510" d="M284 308l209 -308h-51l-165 244l-22 37l-23 -37l-164 -244h-50l207 308l-199 292h52l159 -235l18 -32l19 32l158 235h51z" />
<glyph unicode="Y" horiz-adv-x="537" d="M465 600h50l-225 -369v-231h-43v231l-225 369h51l178 -298l17 -33h2l18 33z" />
<glyph unicode="Z" horiz-adv-x="514" d="M32 31l394 529h-387v40h446v-31l-392 -529h381v-40h-442v31z" />
<glyph unicode="[" horiz-adv-x="288" d="M68 700h204v-37h-162v-756h162v-37h-204v830z" />
<glyph unicode="\" horiz-adv-x="335" d="M37 799h43l218 -927h-43z" />
<glyph unicode="]" horiz-adv-x="288" d="M15 -93h163v756h-163v37h204v-830h-204v37z" />
<glyph unicode="^" horiz-adv-x="407" d="M203 643l-107 -146h-39l130 182h33l131 -182h-40z" />
<glyph unicode="_" horiz-adv-x="536" d="M47 -40h442v-37h-442v37z" />
<glyph unicode="`" horiz-adv-x="259" d="M78 632l55 8l56 -143h-31z" />
<glyph unicode="a" horiz-adv-x="464" d="M395 0h-30l-5 75h-3q-21 -36 -64 -60.5t-98 -24.5q-77 0 -118.5 37t-41.5 93q0 58 47 95.5t140 37.5q74 0 133 -27v26q0 140 -142 140q-30 0 -61.5 -9t-47.5 -17l-17 -9l-17 36q62 37 148 37q90 0 133.5 -47.5t43.5 -130.5v-252zM355 190q-55 29 -129 29 q-77 0 -112.5 -26.5t-35.5 -71.5q0 -42 31 -69t91 -27q64 0 108 38.5t47 80.5v46z" />
<glyph unicode="b" horiz-adv-x="525" d="M74 605h42v-275h2q1 4 4.5 11t16.5 24t30 30t47.5 24t67.5 11q83 0 139.5 -61.5t56.5 -158.5t-56.5 -158.5t-140.5 -61.5q-37 0 -68.5 10.5t-49.5 26t-30.5 31t-16.5 26.5l-5 10h-2l-7 -94h-30v605zM113 210q0 -84 48 -133.5t116 -49.5t114 51.5t46 131.5q0 81 -46 132 t-114 51t-116 -49.5t-48 -133.5z" />
<glyph unicode="c" horiz-adv-x="419" d="M250 -10q-89 0 -147.5 60t-58.5 158q0 99 58.5 160.5t147.5 61.5q39 0 71 -9.5t45 -18.5l12 -10l-14 -32q-44 33 -113 33q-68 0 -116 -50.5t-48 -134.5t47.5 -132.5t116.5 -48.5q31 0 59 8.5t41 16.5l13 8l13 -32q-5 -4 -14 -10.5t-42 -17t-71 -10.5z" />
<glyph unicode="d" horiz-adv-x="525" d="M409 333v272h43v-605h-30l-8 92h-2q-2 -4 -5 -11t-17 -24.5t-31.5 -31t-48.5 -24.5t-67 -11q-85 0 -142 61.5t-57 158.5t57 158.5t141 61.5q36 0 66.5 -10t48 -24t30 -28.5t17.5 -24.5l4 -10h1zM412 210q0 84 -47.5 133.5t-116.5 49.5t-115 -51t-46 -132 q0 -80 46.5 -131.5t114.5 -51.5q69 0 116.5 49.5t47.5 133.5z" />
<glyph unicode="e" horiz-adv-x="459" d="M419 214h-331v-9q1 -83 47 -130.5t117 -47.5q36 0 68 10.5t46 20.5l13 10l18 -32q-6 -5 -17 -12.5t-49 -20.5t-81 -13q-92 0 -148.5 59.5t-56.5 158.5q0 101 54 161.5t139 60.5t133 -56.5t48 -148.5v-11zM237 393q-58 0 -98 -37t-49 -106h286q-5 63 -41 103t-98 40z" />
<glyph unicode="f" horiz-adv-x="284" d="M235 611q21 0 39.5 -3.5t26.5 -7.5l8 -3l-13 -35q-25 11 -63 11q-41 0 -66 -27t-25 -77v-49h129v-36h-129v-384h-42v384h-82v36h82v48q0 67 37 105t98 38z" />
<glyph unicode="g" horiz-adv-x="457" d="M340 385v-2l5 -2.5t11.5 -9t15 -17.5t11.5 -27.5t5 -39.5q0 -57 -42 -98t-114 -41q-59 0 -99 28q-52 -18 -52 -52q0 -27 35.5 -42t127.5 -17q193 -4 193 -121q0 -55 -54 -91.5t-148 -36.5q-96 0 -145.5 31t-49.5 86q0 73 96 107q-93 19 -93 84q0 49 67 77q-31 34 -31 86 q0 60 41 100.5t112 40.5q30 0 56 -8h144v-35h-92zM232 393q-53 0 -84.5 -30.5t-31.5 -75.5q0 -44 31.5 -74t84.5 -30q54 0 86 30t32 74q0 45 -32 75.5t-86 30.5zM244 29q-34 0 -59 3q-104 -32 -104 -99q0 -38 39 -60t115 -22q77 0 119 25.5t42 67.5q0 37 -39 60.5t-113 24.5 z" />
<glyph unicode="h" horiz-adv-x="507" d="M74 605h42v-253h2q1 1 7 9t11 13.5t14.5 14.5t20.5 15.5t25 12.5t32 9.5t38 3.5q81 0 127 -54t46 -142v-234h-42v229q0 73 -36 118.5t-103 45.5t-103.5 -44t-38.5 -92v-257h-42v605z" />
<glyph unicode="i" horiz-adv-x="193" d="M96 538q-14 0 -23.5 9.5t-9.5 23.5t9.5 24t23.5 10t24 -10t10 -24t-10 -23.5t-24 -9.5zM76 420h42v-420h-42v420z" />
<glyph unicode="j" horiz-adv-x="193" d="M96 538q-14 0 -23.5 9.5t-9.5 23.5t9.5 24t23.5 10t24 -10t10 -24t-10 -23.5t-24 -9.5zM3 -120h10q63 0 63 70v470h42v-471q0 -105 -98 -105h-17v36z" />
<glyph unicode="k" horiz-adv-x="427" d="M409 420l-201 -178l205 -242h-54l-182 213l-61 -54v-159h-42v605h42v-391h1l234 206h58z" />
<glyph unicode="l" horiz-adv-x="196" d="M77 605h42v-605h-42v605z" />
<glyph unicode="m" horiz-adv-x="827" d="M104 420l5 -76h3q9 14 13 19.5t19.5 21t29.5 23t38.5 15t52.5 7.5q59 0 100 -27t59 -74h4q0 1 5 10t7.5 13t9.5 14t13 15.5t15.5 14.5t20 14t24 10t30 7.5t34.5 2.5q81 0 126.5 -54t45.5 -142v-234h-42v230q0 73 -35.5 118t-102.5 45t-103 -46.5t-38 -98.5v-248h-42v251 q0 63 -36 102.5t-103 39.5t-103 -42.5t-38 -91.5v-259h-42v420h30z" />
<glyph unicode="n" horiz-adv-x="507" d="M74 420h30l5 -76h3q56 86 154 86q82 0 128 -54t46 -142v-234h-42v230q0 73 -36.5 118t-103.5 45t-103.5 -43.5t-38.5 -92.5v-257h-42v420z" />
<glyph unicode="o" horiz-adv-x="502" d="M458 208q0 -99 -59.5 -158.5t-147.5 -59.5q-89 0 -148 59.5t-59 158.5t59.5 160.5t147.5 61.5q87 0 147 -62t60 -160zM251 26q68 0 116.5 49.5t48.5 132.5t-49 134.5t-116 51.5q-68 0 -116.5 -51.5t-48.5 -134.5t48.5 -132.5t116.5 -49.5z" />
<glyph unicode="p" horiz-adv-x="525" d="M116 87v-243h-42v576h30l6 -89h4q2 4 5 10.5t17 24t31.5 30.5t48.5 23.5t67 10.5q84 0 140.5 -61.5t56.5 -158.5t-56.5 -158.5t-139.5 -61.5q-37 0 -67.5 10t-48 24.5t-29.5 28.5t-17 24l-4 10h-2zM113 210q0 -84 48 -133.5t116 -49.5t114 51t46 132q0 80 -46 131.5 t-114 51.5t-116 -49.5t-48 -133.5z" />
<glyph unicode="q" horiz-adv-x="525" d="M452 -156h-43v246h-1q-1 -4 -4.5 -11t-16.5 -24t-30 -30t-48 -24t-67 -11q-84 0 -141 61.5t-57 158.5t57 158.5t142 61.5q37 0 67.5 -10.5t48.5 -26t31 -30.5t18 -25l4 -11h2l7 93h31v-576zM412 210q0 84 -47.5 133.5t-116.5 49.5q-68 0 -114.5 -51.5t-46.5 -131.5 q0 -81 46 -132t115 -51t116.5 49.5t47.5 133.5z" />
<glyph unicode="r" horiz-adv-x="269" d="M257 385h-18q-55 0 -88.5 -38.5t-34.5 -94.5v-252h-42v420h30l5 -82h3q7 15 18.5 31t41.5 33.5t67 17.5h18v-35z" />
<glyph unicode="s" horiz-adv-x="400" d="M62 66q56 -38 139 -38q61 0 90.5 22t29.5 58q0 32 -28.5 51.5t-69.5 29.5t-81.5 21.5t-69 37.5t-28.5 68q0 52 38.5 83t112.5 31q43 0 80.5 -8t53.5 -16l16 -9l-17 -37q-49 33 -131 33q-114 0 -114 -76q0 -31 28.5 -48.5t69.5 -26.5t81.5 -20.5t69 -39t28.5 -72.5 q0 -53 -38 -86t-119 -33q-48 0 -88 11t-56 22l-16 11z" />
<glyph unicode="t" horiz-adv-x="296" d="M97 420v128h42v-128h129v-36h-129v-278q0 -79 71 -79q16 0 31.5 4.5t22.5 8.5l8 5l14 -32q-28 -23 -80 -23q-53 0 -81 30.5t-28 83.5v280h-81v36h81z" />
<glyph unicode="u" horiz-adv-x="503" d="M387 420h42v-420h-28l-9 76h-2q-2 -4 -6 -11t-16.5 -21t-28.5 -25.5t-43.5 -20t-59.5 -8.5q-81 0 -125 54t-44 142v234h43v-230q0 -74 33 -118.5t100 -44.5q69 0 106 44.5t38 92.5v256z" />
<glyph unicode="v" horiz-adv-x="453" d="M241 0h-29l-193 420h47l152 -346q7 -14 7 -25h3q0 9 8 25l152 346h47z" />
<glyph unicode="w" horiz-adv-x="645" d="M24 420h45l115 -346q6 -16 6 -25h5q0 1 6 25l103 346h39l102 -346q6 -16 6 -25h5q0 6 7 25l115 346h43l-150 -420h-41l-102 350q-4 10 -4 20h-3q0 -8 -5 -20l-103 -350h-39z" />
<glyph unicode="x" horiz-adv-x="416" d="M182 221l-149 199h50l124 -172h3l124 172h49l-149 -198l164 -222h-51l-137 195h-3l-140 -195h-49z" />
<glyph unicode="y" horiz-adv-x="441" d="M143 -156h-46l107 205l-188 371h48l153 -310q7 -19 7 -25h3q0 9 6 25l152 310h44z" />
<glyph unicode="z" horiz-adv-x="415" d="M38 0v26l284 358h-283v36h338v-24l-281 -360h281v-36h-339z" />
<glyph unicode="{" horiz-adv-x="235" d="M39 309q29 0 47 24.5t18 67.5v213q0 91 85 101l7 -37q-27 -4 -37.5 -19t-10.5 -52v-206q0 -91 -53 -110v-7q53 -18 53 -107v-212q0 -36 10.5 -51.5t37.5 -18.5l-7 -37q-85 8 -85 100v218q0 43 -18 67.5t-47 24.5h-15v41h15z" />
<glyph unicode="|" horiz-adv-x="177" d="M109 -128h-41v815h41v-815z" />
<glyph unicode="}" horiz-adv-x="235" d="M211 309v-41h-15q-28 0 -46 -24.5t-18 -67.5v-218q0 -91 -86 -100l-7 37q27 3 37.5 18.5t10.5 51.5v212q0 89 53 107v7q-53 19 -53 110v206q0 37 -10.5 52t-37.5 19l7 37q86 -10 86 -101v-213q0 -43 18 -67.5t46 -24.5h15z" />
<glyph unicode="~" horiz-adv-x="456" d="M299 300q22 0 41 5.5t27 10.5l8 6l16 -26q-30 -31 -91 -31q-26 0 -70 14.5t-73 14.5q-21 0 -40 -5t-27 -11l-9 -5l-15 26q30 31 91 31q25 0 69 -15t73 -15z" />
<glyph unicode="&#xa1;" horiz-adv-x="177" d="M53 395q0 15 10.5 26t25.5 11t25.5 -11t10.5 -26t-10.5 -26t-25.5 -11t-25.5 11t-10.5 26zM114 -176h-51l11 452h29z" />
<glyph unicode="&#xa2;" horiz-adv-x="432" d="M192 86q-65 18 -105 74t-40 135q0 97 57.5 158.5t144.5 63.5l11 83h34l-11 -84q28 -3 52.5 -12t35.5 -16l11 -8l-14 -33q-34 26 -90 32l-47 -363q14 -2 25 -2q31 0 59 8.5t41 17.5l12 8l13 -33q-5 -4 -14.5 -10.5t-42.5 -17t-69 -10.5q-10 0 -30 2l-10 -79h-34zM90 295 q0 -63 30 -108t78 -63l46 356q-64 -5 -109 -55.5t-45 -129.5z" />
<glyph unicode="&#xa3;" horiz-adv-x="496" d="M434 0h-366v41q7 4 17 12t27 39.5t17 71.5q0 25 -22 111h-66v36h56q-12 53 -12 102q0 80 52.5 136.5t150.5 56.5q49 0 89.5 -16.5t56.5 -33.5l15 -16l-28 -32q-5 6 -15 15.5t-44.5 25.5t-74.5 16q-77 0 -116.5 -44.5t-39.5 -109.5q0 -47 12 -100h240v-36h-230 q21 -86 21 -109q0 -74 -47 -126h307v-40z" />
<glyph unicode="&#xa5;" horiz-adv-x="557" d="M475 600h50l-205 -336h154v-36h-173v-88h173v-36h-173v-104h-44v104h-176v36h176v88h-176v36h156l-204 336h50l179 -298l17 -33h2l17 33z" />
<glyph unicode="&#xa6;" horiz-adv-x="182" d="M71 330v343h40v-343h-40zM71 -153v343h40v-343h-40z" />
<glyph unicode="&#xa7;" horiz-adv-x="506" d="M260 613q59 0 107 -11t66 -22l18 -11l-25 -36q-6 5 -18 11.5t-55 18t-93 11.5q-78 0 -117 -22t-39 -60q0 -35 32.5 -57.5t105.5 -42.5q161 -43 161 -112q0 -40 -34 -62q49 -23 70.5 -48t21.5 -60q0 -52 -51 -87.5t-156 -35.5q-63 0 -115.5 13.5t-73.5 27.5l-21 13l25 36 q7 -5 21.5 -13.5t62.5 -22t100 -13.5q82 0 121 23t39 59q0 38 -31.5 58.5t-128.5 50.5q-76 22 -108.5 46t-32.5 57q0 42 38 60q-95 41 -95 108q0 55 52.5 89t152.5 34zM332 233q27 18 27 46q0 22 -31.5 40t-100.5 37q-32 9 -39 12q-33 -13 -33 -44q0 -20 25.5 -35t88.5 -34 q61 -21 63 -22z" />
<glyph unicode="&#xa8;" horiz-adv-x="416" d="M82 705q0 14 11 25t25 11t25 -11t11 -25q0 -15 -11 -26t-25 -11t-25 11t-11 26zM226 705q0 14 11 25t25 11t25 -11t11 -25q0 -15 -11 -26t-25 -11t-25 11t-11 26z" />
<glyph unicode="&#xa9;" horiz-adv-x="696" d="M348 602q136 0 217.5 -87t81.5 -216t-81.5 -216t-217.5 -87q-135 0 -217 87.5t-82 215.5t82 215.5t217 87.5zM348 572q-121 0 -194 -78.5t-73 -194.5t73 -194.5t194 -78.5t194.5 78.5t73.5 194.5t-73.5 194.5t-194.5 78.5zM440 400q-29 31 -86 31q-58 0 -92 -37.5 t-34 -93.5t34 -93t92 -37q24 0 46 7.5t32 14.5l9 8l17 -25q-4 -4 -11.5 -10t-34.5 -16.5t-59 -10.5q-73 0 -116 46t-43 116q0 69 43 116t116 47q32 0 58.5 -9.5t36.5 -19.5l10 -9z" />
<glyph unicode="&#xaa;" horiz-adv-x="403" d="M45 371q0 48 37 76.5t99 28.5q86 0 118 -44v27q0 59 -23.5 90t-85.5 31q-54 0 -102 -24l-13 32q55 26 120 26q78 0 110 -40.5t32 -115.5v-184h-27l-6 48h-2q-28 -56 -126 -56q-58 0 -94.5 29t-36.5 76zM82 371q0 -34 28 -54.5t73 -20.5q52 0 83 22t33 52v3q0 33 -31 53.5 t-82 20.5q-47 0 -75.5 -20.5t-28.5 -55.5z" />
<glyph unicode="&#xab;" horiz-adv-x="407" d="M47 218l110 171h38v-9l-108 -169v-3l108 -172v-8h-38l-110 171v19zM206 218l110 171h38v-9l-108 -169v-3l108 -172v-8h-38l-110 171v19z" />
<glyph unicode="&#xac;" horiz-adv-x="554" d="M53 346h431v-346h-37v309h-394v37z" />
<glyph unicode="&#xad;" horiz-adv-x="400" d="M63 248h273v-37h-273v37z" />
<glyph unicode="&#xae;" horiz-adv-x="560" d="M508 380q0 -97 -63 -164t-166 -67q-102 0 -164 67t-62 164q0 98 62 165t164 67q103 0 166 -67t63 -165zM475 380q0 86 -54.5 144t-141.5 58q-86 0 -140 -57.5t-54 -144.5q0 -85 54 -143t140 -58q88 0 142 57.5t54 143.5zM285 485q38 0 59 -18.5t21 -49.5q0 -46 -41 -62 v-1l47 -63v-8h-27l-48 64h-71v-64h-28v202h88zM225 458v-84h59q25 0 39 11.5t14 31.5q0 41 -52 41h-60z" />
<glyph unicode="&#xaf;" horiz-adv-x="505" d="M124 699h265v-31h-265v31z" />
<glyph unicode="&#xb0;" horiz-adv-x="310" d="M155 671q50 0 80.5 -30t30.5 -76t-30.5 -76t-80.5 -30t-81 30t-31 76t31 76t81 30zM155 643q-36 0 -58.5 -22.5t-22.5 -55.5t22.5 -55t58.5 -22t58.5 22t22.5 55t-22.5 55.5t-58.5 22.5z" />
<glyph unicode="&#xb1;" horiz-adv-x="548" d="M258 182v183h-183v37h183v186h37v-186h179v-37h-179v-183h-37zM474 69h-399v37h399v-37z" />
<glyph unicode="&#xb2;" horiz-adv-x="358" d="M56 370l155 131q41 38 41 75q0 70 -81 70q-24 0 -47.5 -9.5t-32 -16t-12.5 -10.5l-18 25q5 5 14 12t38 18.5t59 11.5q59 0 86.5 -27.5t27.5 -72.5q0 -56 -50 -97l-127 -107h191v-31h-244v28z" />
<glyph unicode="&#xb3;" horiz-adv-x="342" d="M59 668h220v-28l-86 -105q48 -2 74.5 -27.5t26.5 -69.5q0 -45 -32.5 -74.5t-92.5 -29.5q-32 0 -62 11.5t-43 21.5t-15 13l19 24q41 -39 101 -39q43 0 67 21t24 53t-21 49.5t-58 18.5h-32v24l87 106h-177v31z" />
<glyph unicode="&#xb4;" horiz-adv-x="255" d="M103 497h-31l56 143l55 -8z" />
<glyph unicode="&#xb5;" horiz-adv-x="492" d="M384 420h42v-420h-28l-8 76h-2q-52 -86 -155 -86q-86 0 -128 68l1 -221h-41v583h42v-230q0 -74 33 -118.5t100 -44.5q70 0 106.5 44.5t37.5 92.5v256z" />
<glyph unicode="&#xb6;" horiz-adv-x="494" d="M377 169h-94q-114 0 -182 58t-68 162q0 100 67 156t182 56h138v-683h-43v251z" />
<glyph unicode="&#xb7;" horiz-adv-x="197" d="M62 360q0 16 10.5 26.5t25.5 10.5q16 0 26.5 -10.5t10.5 -26.5q0 -15 -10.5 -26t-26.5 -11q-15 0 -25.5 11t-10.5 26z" />
<glyph unicode="&#xb8;" horiz-adv-x="206" d="M68 -48l23 51h30l-17 -38q31 0 50 -16t19 -47q0 -30 -20.5 -48.5t-57.5 -18.5q-20 0 -36.5 6.5t-23.5 12.5l-7 6l14 21q20 -19 53 -19q23 0 37 11t14 30q0 18 -13.5 28t-35.5 10l-19 -2z" />
<glyph unicode="&#xb9;" horiz-adv-x="204" d="M23 668h112v-326h-34v295h-78v31z" />
<glyph unicode="&#xba;" horiz-adv-x="419" d="M210 613q72 0 118 -47t46 -126q0 -76 -46 -123t-118 -47t-118.5 47t-46.5 123q0 79 46 126t119 47zM210 579q-56 0 -91 -37.5t-35 -100.5q0 -62 35 -99.5t91 -37.5q57 0 92 37.5t35 99.5q0 63 -35 100.5t-92 37.5z" />
<glyph unicode="&#xbb;" horiz-adv-x="407" d="M201 199l-110 -171h-39v8l109 172v3l-109 169v9h39l110 -171v-19zM360 199l-110 -171h-39v8l109 172v3l-109 169v9h39l110 -171v-19z" />
<glyph unicode="&#xbc;" horiz-adv-x="612" d="M37 600h113v-326h-35v295h-78v31zM40 0l471 600h42l-472 -600h-41zM303 119l183 207h25v-201h61v-30h-61v-95h-33v95h-175v24zM383 165l-38 -41v-2l65 3h68v146h-2z" />
<glyph unicode="&#xbd;" d="M38 0l472 600h42l-472 -600h-42zM40 600h112v-326h-35v295h-77v31zM398 0h244v31h-192l128 107q50 41 50 97q0 45 -28 72.5t-87 27.5q-30 0 -57.5 -10.5t-39.5 -20.5l-13 -11l17 -25q4 4 13 10.5t32.5 16t47.5 9.5q81 0 81 -70q0 -38 -42 -75l-154 -131v-28z" />
<glyph unicode="&#xbe;" horiz-adv-x="716" d="M52 600h220v-28l-86 -105q48 -2 74.5 -27.5t26.5 -69.5q0 -45 -32.5 -74.5t-92.5 -29.5q-32 0 -63 12t-42 20.5t-16 13.5l20 24q40 -39 101 -39q43 0 67 21t24 53t-21 49.5t-59 18.5h-32v24l88 106h-177v31zM133 0l471 600h42l-472 -600h-41zM411 119l182 207h25v-201h62 v-30h-62v-95h-32v95h-175v24zM490 165q-30 -35 -38 -41v-2l66 3h68v146h-2z" />
<glyph unicode="&#xbf;" horiz-adv-x="404" d="M250 396q0 -15 -10.5 -25.5t-25.5 -10.5t-26 10.5t-11 25.5t11 26t26 11t25.5 -11t10.5 -26zM377 -140q-6 -5 -18 -13.5t-52 -22t-85 -13.5q-87 0 -137.5 41t-50.5 112q0 41 16.5 73.5t40.5 53.5t48 39.5t41.5 42t18.5 50.5l2 54h28v-62q0 -30 -15.5 -55.5t-37.5 -45 t-44.5 -39t-38 -47.5t-15.5 -61q0 -52 38.5 -83.5t105.5 -31.5q39 0 73 11t49 21l15 11z" />
<glyph unicode="&#xc0;" horiz-adv-x="583" d="M195 770l55 8l56 -143h-31zM563 0h-45l-65 158h-323l-65 -158h-44l250 600h42zM147 198h289l-144 350z" />
<glyph unicode="&#xc1;" horiz-adv-x="583" d="M308 635h-31l56 143l55 -8zM563 0h-45l-65 158h-323l-65 -158h-44l250 600h42zM147 198h289l-144 350z" />
<glyph unicode="&#xc2;" horiz-adv-x="583" d="M292 745l-59 -77h-41l79 109h41l81 -109h-42zM563 0h-45l-65 158h-323l-65 -158h-44l250 600h42zM147 198h289l-144 350z" />
<glyph unicode="&#xc3;" horiz-adv-x="583" d="M362 668q-29 0 -72.5 28.5t-62.5 28.5q-21 0 -30 -11t-15 -32l-3 -13l-31 3l4 20q14 68 72 68q28 0 71 -28.5t63 -28.5q36 0 46 43l3 13l31 -3l-4 -20q-12 -68 -72 -68zM563 0h-45l-65 158h-323l-65 -158h-44l250 600h42zM147 198h289l-144 350z" />
<glyph unicode="&#xc4;" horiz-adv-x="583" d="M184 705q0 14 11 25t25 11t25 -11t11 -25q0 -15 -11 -26t-25 -11t-25 11t-11 26zM328 705q0 14 11 25t25 11t25 -11t11 -25q0 -15 -11 -26t-25 -11t-25 11t-11 26zM563 0h-45l-65 158h-323l-65 -158h-44l250 600h42zM147 198h289l-144 350z" />
<glyph unicode="&#xc5;" horiz-adv-x="583" d="M200 694q0 35 26.5 57t65.5 22t65 -22t26 -57t-26 -57t-65 -22q-40 0 -66 22t-26 57zM350 694q0 48 -58 48q-27 0 -43 -12.5t-16 -35.5q0 -49 59 -49q58 0 58 49zM563 0h-45l-65 158h-323l-65 -158h-44l250 600h42zM147 198h289l-144 350z" />
<glyph unicode="&#xc6;" horiz-adv-x="872" d="M417 600h412v-40h-365v-237h317v-40h-317v-243h365v-40h-408v158h-261l-109 -158h-52zM187 198h234v329h-6z" />
<glyph unicode="&#xc7;" horiz-adv-x="572" d="M289 -49l17 37q-115 13 -187.5 100t-72.5 210q0 135 83.5 225t212.5 90q37 0 71 -8t56 -19.5t38.5 -23.5t24.5 -20l7 -8l-25 -33q-7 8 -20 20t-57.5 31.5t-93.5 19.5q-110 0 -181.5 -80t-71.5 -194q0 -112 71.5 -191.5t181.5 -79.5q49 0 92 18t61 36l18 18l25 -33 q-3 -3 -8 -8.5t-23.5 -19.5t-39 -24.5t-54.5 -19t-71 -8.5q-4 0 -8 1l-10 -23q31 -1 50 -17t19 -46q0 -31 -20.5 -49.5t-57.5 -18.5q-20 0 -36.5 6.5t-23.5 12.5l-7 7l14 20q20 -19 54 -19q23 0 36.5 11t13.5 30q0 18 -13.5 28t-35.5 10l-19 -1z" />
<glyph unicode="&#xc8;" horiz-adv-x="540" d="M194 770l55 8l56 -143h-31zM449 283h-317v-243h365v-40h-408v600h408v-40h-365v-237h317v-40z" />
<glyph unicode="&#xc9;" horiz-adv-x="540" d="M307 635h-31l56 143l55 -8zM449 283h-317v-243h365v-40h-408v600h408v-40h-365v-237h317v-40z" />
<glyph unicode="&#xca;" horiz-adv-x="540" d="M291 745l-59 -77h-41l79 109h41l81 -109h-42zM449 283h-317v-243h365v-40h-408v600h408v-40h-365v-237h317v-40z" />
<glyph unicode="&#xcb;" horiz-adv-x="540" d="M183 705q0 14 11 25t25 11t25 -11t11 -25q0 -15 -11 -26t-25 -11t-25 11t-11 26zM327 705q0 14 11 25t25 11t25 -11t11 -25q0 -15 -11 -26t-25 -11t-25 11t-11 26zM449 283h-317v-243h365v-40h-408v600h408v-40h-365v-237h317v-40z" />
<glyph unicode="&#xcc;" horiz-adv-x="221" d="M14 770l55 8l56 -143h-31zM132 0h-43v600h43v-600z" />
<glyph unicode="&#xcd;" horiz-adv-x="221" d="M127 635h-31l56 143l55 -8zM132 0h-43v600h43v-600z" />
<glyph unicode="&#xce;" horiz-adv-x="221" d="M111 745l-59 -77h-41l79 109h41l81 -109h-42zM132 0h-43v600h43v-600z" />
<glyph unicode="&#xcf;" horiz-adv-x="221" d="M3 705q0 14 11 25t25 11t25 -11t11 -25q0 -15 -11 -26t-25 -11t-25 11t-11 26zM147 705q0 14 11 25t25 11t25 -11t11 -25q0 -15 -11 -26t-25 -11t-25 11t-11 26zM132 0h-43v600h43v-600z" />
<glyph unicode="&#xd0;" horiz-adv-x="628" d="M28 323h62v277h181q136 0 223 -81t87 -219t-87 -219t-223 -81h-181v284h-62v39zM133 560v-237h193v-39h-193v-244h137q115 0 191 70.5t76 189.5q0 118 -76.5 189t-190.5 71h-137z" />
<glyph unicode="&#xd1;" horiz-adv-x="664" d="M406 668q-29 0 -72.5 28.5t-62.5 28.5q-21 0 -30 -11t-15 -32l-3 -13l-31 3l4 20q14 68 72 68q28 0 71 -28.5t63 -28.5q36 0 46 43l3 13l31 -3l-4 -20q-12 -68 -72 -68zM575 0h-38l-405 530v-530h-43v600h39l404 -529v529h43v-600z" />
<glyph unicode="&#xd2;" d="M243 770l55 8l56 -143h-31zM339 -9q-130 0 -211 88t-81 219t81 219t211 88q131 0 212 -88t81 -219t-81 -219t-212 -88zM339 32q113 0 181 77.5t68 188.5t-68 188.5t-181 77.5t-180.5 -77.5t-67.5 -188.5t67.5 -188.5t180.5 -77.5z" />
<glyph unicode="&#xd3;" d="M356 635h-31l56 143l55 -8zM339 -9q-130 0 -211 88t-81 219t81 219t211 88q131 0 212 -88t81 -219t-81 -219t-212 -88zM339 32q113 0 181 77.5t68 188.5t-68 188.5t-181 77.5t-180.5 -77.5t-67.5 -188.5t67.5 -188.5t180.5 -77.5z" />
<glyph unicode="&#xd4;" d="M340 745l-59 -77h-41l79 109h41l81 -109h-42zM339 -9q-130 0 -211 88t-81 219t81 219t211 88q131 0 212 -88t81 -219t-81 -219t-212 -88zM339 32q113 0 181 77.5t68 188.5t-68 188.5t-181 77.5t-180.5 -77.5t-67.5 -188.5t67.5 -188.5t180.5 -77.5z" />
<glyph unicode="&#xd5;" d="M410 668q-29 0 -72.5 28.5t-62.5 28.5q-21 0 -30 -11t-15 -32l-3 -13l-31 3l4 20q14 68 72 68q28 0 71 -28.5t63 -28.5q36 0 46 43l3 13l31 -3l-4 -20q-12 -68 -72 -68zM339 -9q-130 0 -211 88t-81 219t81 219t211 88q131 0 212 -88t81 -219t-81 -219t-212 -88zM339 32 q113 0 181 77.5t68 188.5t-68 188.5t-181 77.5t-180.5 -77.5t-67.5 -188.5t67.5 -188.5t180.5 -77.5z" />
<glyph unicode="&#xd6;" d="M232 705q0 14 11 25t25 11t25 -11t11 -25q0 -15 -11 -26t-25 -11t-25 11t-11 26zM376 705q0 14 11 25t25 11t25 -11t11 -25q0 -15 -11 -26t-25 -11t-25 11t-11 26zM339 -9q-130 0 -211 88t-81 219t81 219t211 88q131 0 212 -88t81 -219t-81 -219t-212 -88zM339 32 q113 0 181 77.5t68 188.5t-68 188.5t-181 77.5t-180.5 -77.5t-67.5 -188.5t67.5 -188.5t180.5 -77.5z" />
<glyph unicode="&#xd7;" horiz-adv-x="495" d="M66 137l157 164l-157 165l26 26l156 -165l157 165l25 -26l-157 -165l157 -164l-25 -26l-157 164l-156 -164z" />
<glyph unicode="&#xd8;" d="M654 600l-92 -96q70 -84 70 -206q0 -131 -81 -219t-212 -88q-118 0 -198 75l-64 -66h-54l91 95q-67 84 -67 203q0 131 81 219t211 88q116 0 196 -72l64 67h55zM91 298q0 -98 54 -171l360 375q-69 62 -166 62q-113 0 -180.5 -77.5t-67.5 -188.5zM588 298q0 100 -56 175 l-361 -376q67 -65 168 -65q113 0 181 77.5t68 188.5z" />
<glyph unicode="&#xd9;" horiz-adv-x="627" d="M214 770l55 8l56 -143h-31zM313 -8q-109 0 -170.5 71t-61.5 190v347h43v-347q0 -101 48.5 -161t140.5 -60q93 0 141.5 60t48.5 161v347h43v-347q0 -120 -61 -190.5t-172 -70.5z" />
<glyph unicode="&#xda;" horiz-adv-x="627" d="M327 635h-31l56 143l55 -8zM313 -8q-109 0 -170.5 71t-61.5 190v347h43v-347q0 -101 48.5 -161t140.5 -60q93 0 141.5 60t48.5 161v347h43v-347q0 -120 -61 -190.5t-172 -70.5z" />
<glyph unicode="&#xdb;" horiz-adv-x="627" d="M311 745l-59 -77h-41l79 109h41l81 -109h-42zM313 -8q-109 0 -170.5 71t-61.5 190v347h43v-347q0 -101 48.5 -161t140.5 -60q93 0 141.5 60t48.5 161v347h43v-347q0 -120 -61 -190.5t-172 -70.5z" />
<glyph unicode="&#xdc;" horiz-adv-x="627" d="M203 705q0 14 11 25t25 11t25 -11t11 -25q0 -15 -11 -26t-25 -11t-25 11t-11 26zM347 705q0 14 11 25t25 11t25 -11t11 -25q0 -15 -11 -26t-25 -11t-25 11t-11 26zM313 -8q-109 0 -170.5 71t-61.5 190v347h43v-347q0 -101 48.5 -161t140.5 -60q93 0 141.5 60t48.5 161 v347h43v-347q0 -120 -61 -190.5t-172 -70.5z" />
<glyph unicode="&#xdd;" horiz-adv-x="537" d="M285 635h-31l56 143l55 -8zM465 600h50l-225 -369v-231h-43v231l-225 369h51l178 -298l17 -33h2l18 33z" />
<glyph unicode="&#xde;" horiz-adv-x="568" d="M132 499h179q106 0 165.5 -53t59.5 -143q0 -94 -60.5 -149t-165.5 -55h-178v-99h-43v600h43v-101zM492 302q0 73 -49.5 115t-131.5 42h-179v-319h179q83 0 132 43t49 119z" />
<glyph unicode="&#xdf;" horiz-adv-x="474" d="M234 314q64 4 98.5 39t34.5 90q0 51 -35 87t-89 36q-55 0 -91 -38t-36 -101v-427h-42v423q0 84 46.5 132.5t125.5 48.5q73 0 119.5 -46t46.5 -116q0 -50 -24.5 -86t-67.5 -53q50 -14 79 -54t29 -93q0 -75 -48 -119.5t-130 -44.5q-22 0 -41 3t-27 5l-8 3l7 35 q27 -10 69 -10q59 0 96.5 36t37.5 90q0 58 -38 92.5t-97 34.5h-15v33z" />
<glyph unicode="&#xe0;" horiz-adv-x="464" d="M132 632l55 8l56 -143h-31zM395 0h-30l-5 75h-3q-21 -36 -64 -60.5t-98 -24.5q-77 0 -118.5 37t-41.5 93q0 58 47 95.5t140 37.5q74 0 133 -27v26q0 140 -142 140q-30 0 -61.5 -9t-47.5 -17l-17 -9l-17 36q62 37 148 37q90 0 133.5 -47.5t43.5 -130.5v-252zM355 190 q-55 29 -129 29q-77 0 -112.5 -26.5t-35.5 -71.5q0 -42 31 -69t91 -27q64 0 108 38.5t47 80.5v46z" />
<glyph unicode="&#xe1;" horiz-adv-x="464" d="M237 497h-31l56 143l55 -8zM395 0h-30l-5 75h-3q-21 -36 -64 -60.5t-98 -24.5q-77 0 -118.5 37t-41.5 93q0 58 47 95.5t140 37.5q74 0 133 -27v26q0 140 -142 140q-30 0 -61.5 -9t-47.5 -17l-17 -9l-17 36q62 37 148 37q90 0 133.5 -47.5t43.5 -130.5v-252zM355 190 q-55 29 -129 29q-77 0 -112.5 -26.5t-35.5 -71.5q0 -42 31 -69t91 -27q64 0 108 38.5t47 80.5v46z" />
<glyph unicode="&#xe2;" horiz-adv-x="464" d="M219 573l-59 -77h-41l79 109h41l81 -109h-42zM395 0h-30l-5 75h-3q-21 -36 -64 -60.5t-98 -24.5q-77 0 -118.5 37t-41.5 93q0 58 47 95.5t140 37.5q74 0 133 -27v26q0 140 -142 140q-30 0 -61.5 -9t-47.5 -17l-17 -9l-17 36q62 37 148 37q90 0 133.5 -47.5t43.5 -130.5 v-252zM355 190q-55 29 -129 29q-77 0 -112.5 -26.5t-35.5 -71.5q0 -42 31 -69t91 -27q64 0 108 38.5t47 80.5v46z" />
<glyph unicode="&#xe3;" horiz-adv-x="464" d="M289 498q-29 0 -72.5 28.5t-62.5 28.5q-21 0 -30 -11t-15 -32l-3 -13l-31 3l4 20q14 68 72 68q28 0 71 -28.5t63 -28.5q36 0 46 43l3 13l31 -3l-4 -20q-12 -68 -72 -68zM395 0h-30l-5 75h-3q-21 -36 -64 -60.5t-98 -24.5q-77 0 -118.5 37t-41.5 93q0 58 47 95.5t140 37.5 q74 0 133 -27v26q0 140 -142 140q-30 0 -61.5 -9t-47.5 -17l-17 -9l-17 36q62 37 148 37q90 0 133.5 -47.5t43.5 -130.5v-252zM355 190q-55 29 -129 29q-77 0 -112.5 -26.5t-35.5 -71.5q0 -42 31 -69t91 -27q64 0 108 38.5t47 80.5v46z" />
<glyph unicode="&#xe4;" horiz-adv-x="464" d="M112 534q0 14 11 25t25 11t25 -11t11 -25q0 -15 -11 -26t-25 -11t-25 11t-11 26zM256 534q0 14 11 25t25 11t25 -11t11 -25q0 -15 -11 -26t-25 -11t-25 11t-11 26zM395 0h-30l-5 75h-3q-21 -36 -64 -60.5t-98 -24.5q-77 0 -118.5 37t-41.5 93q0 58 47 95.5t140 37.5 q74 0 133 -27v26q0 140 -142 140q-30 0 -61.5 -9t-47.5 -17l-17 -9l-17 36q62 37 148 37q90 0 133.5 -47.5t43.5 -130.5v-252zM355 190q-55 29 -129 29q-77 0 -112.5 -26.5t-35.5 -71.5q0 -42 31 -69t91 -27q64 0 108 38.5t47 80.5v46z" />
<glyph unicode="&#xe5;" horiz-adv-x="464" d="M132 576q0 35 26.5 57t65.5 22t65 -22t26 -57t-26 -57t-65 -22q-40 0 -66 22t-26 57zM282 576q0 48 -58 48q-27 0 -43 -12.5t-16 -35.5q0 -49 59 -49q58 0 58 49zM395 0h-30l-5 75h-3q-21 -36 -64 -60.5t-98 -24.5q-77 0 -118.5 37t-41.5 93q0 58 47 95.5t140 37.5 q74 0 133 -27v26q0 140 -142 140q-30 0 -61.5 -9t-47.5 -17l-17 -9l-17 36q62 37 148 37q90 0 133.5 -47.5t43.5 -130.5v-252zM355 190q-55 29 -129 29q-77 0 -112.5 -26.5t-35.5 -71.5q0 -42 31 -69t91 -27q64 0 108 38.5t47 80.5v46z" />
<glyph unicode="&#xe6;" horiz-adv-x="776" d="M715 36q-6 -5 -17 -12.5t-48.5 -20.5t-80.5 -13q-63 0 -112.5 29t-74.5 81q-19 -48 -68 -79t-115 -31q-81 0 -122.5 38t-41.5 94q0 60 47.5 97.5t136.5 37.5q76 0 138 -26v21q0 140 -141 140q-31 0 -62.5 -9t-47.5 -17l-16 -9l-17 36q60 37 147 37q131 0 165 -105 q23 50 66.5 77.5t98.5 27.5q90 0 139 -56t49 -149v-11h-338v-10q1 -82 50 -129.5t120 -47.5q36 0 68 10.5t46 20.5l14 11zM550 393q-58 0 -97.5 -37t-49.5 -106h291q-5 64 -41.5 103.5t-102.5 39.5zM203 26q66 0 110 39t44 86v44q-59 28 -134 28q-145 0 -145 -102 q0 -41 31 -68t94 -27z" />
<glyph unicode="&#xe7;" horiz-adv-x="419" d="M212 -55l20 46q-83 5 -135.5 64t-52.5 153q0 99 58.5 160.5t147.5 61.5q39 0 71 -9.5t45 -18.5l12 -10l-14 -32q-44 33 -113 33q-68 0 -116 -50.5t-48 -134.5t47.5 -132.5t116.5 -48.5q31 0 59 8.5t41 16.5l13 8l13 -32q-37 -34 -113 -38h-2l-14 -32q31 0 50 -16t19 -47 q0 -30 -20.5 -48.5t-57.5 -18.5q-20 0 -36.5 6t-23.5 12l-7 7l14 21q20 -19 54 -19q23 0 36.5 11t13.5 30q0 18 -13.5 28t-35.5 10l-19 -2z" />
<glyph unicode="&#xe8;" horiz-adv-x="459" d="M255 497h-31l-80 135l55 8zM419 214h-331v-9q1 -83 47 -130.5t117 -47.5q36 0 68 10.5t46 20.5l13 10l18 -32q-6 -5 -17 -12.5t-49 -20.5t-81 -13q-92 0 -148.5 59.5t-56.5 158.5q0 101 54 161.5t139 60.5t133 -56.5t48 -148.5v-11zM237 393q-58 0 -98 -37t-49 -106h286 q-5 63 -41 103t-98 40z" />
<glyph unicode="&#xe9;" horiz-adv-x="459" d="M329 632l-80 -135h-31l56 143zM419 214h-331v-9q1 -83 47 -130.5t117 -47.5q36 0 68 10.5t46 20.5l13 10l18 -32q-6 -5 -17 -12.5t-49 -20.5t-81 -13q-92 0 -148.5 59.5t-56.5 158.5q0 101 54 161.5t139 60.5t133 -56.5t48 -148.5v-11zM237 393q-58 0 -98 -37t-49 -106 h286q-5 63 -41 103t-98 40z" />
<glyph unicode="&#xea;" horiz-adv-x="459" d="M231 573l-59 -77h-41l79 109h41l81 -109h-42zM419 214h-331v-9q1 -83 47 -130.5t117 -47.5q36 0 68 10.5t46 20.5l13 10l18 -32q-6 -5 -17 -12.5t-49 -20.5t-81 -13q-92 0 -148.5 59.5t-56.5 158.5q0 101 54 161.5t139 60.5t133 -56.5t48 -148.5v-11zM237 393 q-58 0 -98 -37t-49 -106h286q-5 63 -41 103t-98 40z" />
<glyph unicode="&#xeb;" horiz-adv-x="459" d="M160 497q-14 0 -25 11t-11 26q0 14 11 25t25 11t25 -11t11 -25q0 -15 -11 -26t-25 -11zM304 497q-14 0 -25 11t-11 26q0 14 11 25t25 11t25 -11t11 -25q0 -15 -11 -26t-25 -11zM419 214h-331v-9q1 -83 47 -130.5t117 -47.5q36 0 68 10.5t46 20.5l13 10l18 -32 q-6 -5 -17 -12.5t-49 -20.5t-81 -13q-92 0 -148.5 59.5t-56.5 158.5q0 101 54 161.5t139 60.5t133 -56.5t48 -148.5v-11zM237 393q-58 0 -98 -37t-49 -106h286q-5 63 -41 103t-98 40z" />
<glyph unicode="&#xec;" horiz-adv-x="193" d="M8 632l55 8l56 -143h-31zM76 420h42v-420h-42v420z" />
<glyph unicode="&#xed;" horiz-adv-x="193" d="M113 497h-31l56 143l55 -8zM76 420h42v-420h-42v420z" />
<glyph unicode="&#xee;" horiz-adv-x="193" d="M95 573l-59 -77h-41l79 109h41l81 -109h-42zM76 420h42v-420h-42v420z" />
<glyph unicode="&#xef;" horiz-adv-x="193" d="M-12 534q0 14 11 25t25 11t25 -11t11 -25q0 -15 -11 -26t-25 -11t-25 11t-11 26zM132 534q0 14 11 25t25 11t25 -11t11 -25q0 -15 -11 -26t-25 -11t-25 11t-11 26zM76 420h42v-420h-42v420z" />
<glyph unicode="&#xf0;" horiz-adv-x="498" d="M248 -10q-90 0 -147 60.5t-57 159.5q0 98 57 159t147 61q51 0 94 -27v3q-12 15 -23 31l-75 120l-120 -74l-17 28l119 74l-85 136v7h41l77 -123l120 74l17 -28l-119 -74l115 -181q60 -96 60 -182v-4q0 -99 -57 -159.5t-147 -60.5zM411 210q0 85 -47 134t-116 49t-115 -50 t-46 -133t46 -133t115 -50t116 49t47 134z" />
<glyph unicode="&#xf1;" horiz-adv-x="507" d="M323 498q-29 0 -72.5 28.5t-62.5 28.5q-21 0 -30 -11t-15 -32l-3 -13l-31 3l4 20q14 68 72 68q28 0 71 -28.5t63 -28.5q36 0 46 43l3 13l31 -3l-4 -20q-12 -68 -72 -68zM74 420h30l5 -76h3q56 86 154 86q82 0 128 -54t46 -142v-234h-42v230q0 73 -36.5 118t-103.5 45 t-103.5 -43.5t-38.5 -92.5v-257h-42v420z" />
<glyph unicode="&#xf2;" horiz-adv-x="502" d="M164 632l55 8l56 -143h-31zM458 208q0 -99 -59.5 -158.5t-147.5 -59.5q-89 0 -148 59.5t-59 158.5t59.5 160.5t147.5 61.5q87 0 147 -62t60 -160zM251 26q68 0 116.5 49.5t48.5 132.5t-49 134.5t-116 51.5q-68 0 -116.5 -51.5t-48.5 -134.5t48.5 -132.5t116.5 -49.5z" />
<glyph unicode="&#xf3;" horiz-adv-x="502" d="M269 497h-31l56 143l55 -8zM458 208q0 -99 -59.5 -158.5t-147.5 -59.5q-89 0 -148 59.5t-59 158.5t59.5 160.5t147.5 61.5q87 0 147 -62t60 -160zM251 26q68 0 116.5 49.5t48.5 132.5t-49 134.5t-116 51.5q-68 0 -116.5 -51.5t-48.5 -134.5t48.5 -132.5t116.5 -49.5z" />
<glyph unicode="&#xf4;" horiz-adv-x="502" d="M251 573l-59 -77h-41l79 109h41l81 -109h-42zM458 208q0 -99 -59.5 -158.5t-147.5 -59.5q-89 0 -148 59.5t-59 158.5t59.5 160.5t147.5 61.5q87 0 147 -62t60 -160zM251 26q68 0 116.5 49.5t48.5 132.5t-49 134.5t-116 51.5q-68 0 -116.5 -51.5t-48.5 -134.5t48.5 -132.5 t116.5 -49.5z" />
<glyph unicode="&#xf5;" horiz-adv-x="502" d="M321 498q-29 0 -72.5 28.5t-62.5 28.5q-21 0 -30 -11t-15 -32l-3 -13l-31 3l4 20q14 68 72 68q28 0 71 -28.5t63 -28.5q36 0 46 43l3 13l31 -3l-4 -20q-12 -68 -72 -68zM458 208q0 -99 -59.5 -158.5t-147.5 -59.5q-89 0 -148 59.5t-59 158.5t59.5 160.5t147.5 61.5 q87 0 147 -62t60 -160zM251 26q68 0 116.5 49.5t48.5 132.5t-49 134.5t-116 51.5q-68 0 -116.5 -51.5t-48.5 -134.5t48.5 -132.5t116.5 -49.5z" />
<glyph unicode="&#xf6;" horiz-adv-x="502" d="M144 534q0 14 11 25t25 11t25 -11t11 -25q0 -15 -11 -26t-25 -11t-25 11t-11 26zM288 534q0 14 11 25t25 11t25 -11t11 -25q0 -15 -11 -26t-25 -11t-25 11t-11 26zM458 208q0 -99 -59.5 -158.5t-147.5 -59.5q-89 0 -148 59.5t-59 158.5t59.5 160.5t147.5 61.5 q87 0 147 -62t60 -160zM251 26q68 0 116.5 49.5t48.5 132.5t-49 134.5t-116 51.5q-68 0 -116.5 -51.5t-48.5 -134.5t48.5 -132.5t116.5 -49.5z" />
<glyph unicode="&#xf7;" horiz-adv-x="489" d="M207 435q0 16 11 27t27 11q15 0 26 -11t11 -27t-11 -27t-26 -11q-16 0 -27 11t-11 27zM64 313h361v-37h-361v37zM207 161q0 16 11 27t27 11q15 0 26 -11t11 -27t-11 -26.5t-26 -10.5q-16 0 -27 10.5t-11 26.5z" />
<glyph unicode="&#xf8;" horiz-adv-x="503" d="M459 208q0 -99 -59.5 -158.5t-147.5 -59.5q-81 0 -137 50l-37 -40h-42l57 61q-48 59 -48 147q0 99 59.5 160.5t147.5 61.5q78 0 134 -50l38 40h41l-58 -61q52 -62 52 -151zM87 208q0 -68 35 -116l237 260q-45 42 -107 42q-68 0 -116.5 -51.5t-48.5 -134.5zM252 26 q68 0 116.5 49.5t48.5 132.5q0 70 -38 121l-237 -260q43 -43 110 -43z" />
<glyph unicode="&#xf9;" horiz-adv-x="503" d="M154 632l55 8l56 -143h-31zM387 420h42v-420h-28l-9 76h-2q-2 -4 -6 -11t-16.5 -21t-28.5 -25.5t-43.5 -20t-59.5 -8.5q-81 0 -125 54t-44 142v234h43v-230q0 -74 33 -118.5t100 -44.5q69 0 106 44.5t38 92.5v256z" />
<glyph unicode="&#xfa;" horiz-adv-x="503" d="M259 497h-31l56 143l55 -8zM387 420h42v-420h-28l-9 76h-2q-2 -4 -6 -11t-16.5 -21t-28.5 -25.5t-43.5 -20t-59.5 -8.5q-81 0 -125 54t-44 142v234h43v-230q0 -74 33 -118.5t100 -44.5q69 0 106 44.5t38 92.5v256z" />
<glyph unicode="&#xfb;" horiz-adv-x="503" d="M241 573l-59 -77h-41l79 109h41l81 -109h-42zM387 420h42v-420h-28l-9 76h-2q-2 -4 -6 -11t-16.5 -21t-28.5 -25.5t-43.5 -20t-59.5 -8.5q-81 0 -125 54t-44 142v234h43v-230q0 -74 33 -118.5t100 -44.5q69 0 106 44.5t38 92.5v256z" />
<glyph unicode="&#xfc;" horiz-adv-x="503" d="M134 534q0 14 11 25t25 11t25 -11t11 -25q0 -15 -11 -26t-25 -11t-25 11t-11 26zM278 534q0 14 11 25t25 11t25 -11t11 -25q0 -15 -11 -26t-25 -11t-25 11t-11 26zM387 420h42v-420h-28l-9 76h-2q-2 -4 -6 -11t-16.5 -21t-28.5 -25.5t-43.5 -20t-59.5 -8.5q-81 0 -125 54 t-44 142v234h43v-230q0 -74 33 -118.5t100 -44.5q69 0 106 44.5t38 92.5v256z" />
<glyph unicode="&#xfd;" horiz-adv-x="441" d="M238 497h-31l56 143l55 -8zM143 -156h-46l107 205l-188 371h48l153 -310q7 -19 7 -25h3q0 9 6 25l152 310h44z" />
<glyph unicode="&#xfe;" horiz-adv-x="525" d="M116 100v-256h-42v756h42v-279h2q1 4 4.5 11.5t16.5 26.5t30 33t48 26t67 12q84 0 140.5 -61.5t56.5 -158.5t-57 -158.5t-140 -61.5q-37 0 -67.5 11.5t-48 27.5t-29.5 32t-17 27l-4 12h-2zM114 210q0 -84 48 -133.5t116 -49.5t114 51t46 132q0 80 -46 131.5t-114 51.5 t-116 -49.5t-48 -133.5z" />
<glyph unicode="&#xff;" horiz-adv-x="441" d="M113 534q0 14 11 25t25 11t25 -11t11 -25q0 -15 -11 -26t-25 -11t-25 11t-11 26zM257 534q0 14 11 25t25 11t25 -11t11 -25q0 -15 -11 -26t-25 -11t-25 11t-11 26zM143 -156h-46l107 205l-188 371h48l153 -310q7 -19 7 -25h3q0 9 6 25l152 310h44z" />
<glyph unicode="&#x152;" horiz-adv-x="1039" d="M996 560h-365v-235v-2h317v-40h-316q0 -2 -0.5 -6t-0.5 -6v-231h365v-40h-408v129q-38 -65 -102 -101.5t-147 -36.5q-130 0 -211 88t-81 219t81 219t211 88q83 0 147 -36.5t102 -101.5v133h408v-40zM339 32q113 0 181 77.5t68 188.5t-68 188.5t-181 77.5t-180.5 -77.5 t-67.5 -188.5t67.5 -188.5t180.5 -77.5z" />
<glyph unicode="&#x153;" horiz-adv-x="828" d="M768 36q-6 -5 -17 -12.5t-49 -20.5t-81 -13q-65 0 -114 31.5t-71 87.5q-25 -56 -74 -87.5t-111 -31.5q-89 0 -148 59.5t-59 158.5t59.5 160.5t147.5 61.5q61 0 110.5 -32.5t73.5 -89.5q22 58 68 90t106 32q85 0 133 -56.5t48 -148.5v-11h-331v-16q3 -80 49 -125.5 t115 -45.5q36 0 68 10.5t45 20.5l14 10zM251 26q68 0 116.5 49.5t48.5 132.5q-2 84 -49 135t-116 51q-68 0 -116.5 -51.5t-48.5 -134.5t48.5 -132.5t116.5 -49.5zM608 393q-58 0 -97.5 -37t-48.5 -106h285q-5 63 -41 103t-98 40z" />
<glyph unicode="&#x178;" horiz-adv-x="537" d="M161 705q0 14 11 25t25 11t25 -11t11 -25q0 -15 -11 -26t-25 -11t-25 11t-11 26zM305 705q0 14 11 25t25 11t25 -11t11 -25q0 -15 -11 -26t-25 -11t-25 11t-11 26zM465 600h50l-225 -369v-231h-43v231l-225 369h51l178 -298l17 -33h2l18 33z" />
<glyph unicode="&#x2c6;" horiz-adv-x="340" d="M174 745l-59 -77h-41l79 109h41l81 -109h-42z" />
<glyph unicode="&#x2dc;" horiz-adv-x="444" d="M285 668q-29 0 -72.5 28.5t-62.5 28.5q-21 0 -30 -11t-15 -32l-3 -13l-31 3l4 20q14 68 72 68q28 0 71 -28.5t63 -28.5q36 0 46 43l3 13l31 -3l-4 -20q-12 -68 -72 -68z" />
<glyph unicode="&#x2000;" horiz-adv-x="399" />
<glyph unicode="&#x2001;" horiz-adv-x="799" />
<glyph unicode="&#x2002;" horiz-adv-x="399" />
<glyph unicode="&#x2003;" horiz-adv-x="799" />
<glyph unicode="&#x2004;" horiz-adv-x="266" />
<glyph unicode="&#x2005;" horiz-adv-x="199" />
<glyph unicode="&#x2006;" horiz-adv-x="133" />
<glyph unicode="&#x2007;" horiz-adv-x="133" />
<glyph unicode="&#x2008;" horiz-adv-x="99" />
<glyph unicode="&#x2009;" horiz-adv-x="159" />
<glyph unicode="&#x200a;" horiz-adv-x="44" />
<glyph unicode="&#x2010;" horiz-adv-x="400" d="M63 248h273v-37h-273v37z" />
<glyph unicode="&#x2011;" horiz-adv-x="400" d="M63 248h273v-37h-273v37z" />
<glyph unicode="&#x2012;" horiz-adv-x="400" d="M63 248h273v-37h-273v37z" />
<glyph unicode="&#x2013;" horiz-adv-x="461" d="M64 307h323v-38h-323v38z" />
<glyph unicode="&#x2014;" horiz-adv-x="724" d="M64 307h586v-38h-586v38z" />
<glyph unicode="&#x2018;" horiz-adv-x="206" d="M55 473q0 50 27.5 83.5t78.5 43.5l7 -28q-33 -7 -54 -27.5t-22 -46.5q15 -1 24.5 -11.5t9.5 -23.5q0 -14 -10.5 -25t-24.5 -11q-15 0 -25.5 11t-10.5 25v10z" />
<glyph unicode="&#x2019;" horiz-adv-x="212" d="M53 455q33 7 54 27.5t22 47.5q-15 1 -24.5 11.5t-9.5 23.5q0 14 10.5 24.5t24.5 10.5q15 0 25.5 -10.5t10.5 -24.5v-11q0 -49 -27.5 -83t-78.5 -44z" />
<glyph unicode="&#x201a;" horiz-adv-x="197" d="M21 -83q33 7 54 27.5t22 47.5q-16 1 -25 11t-9 23q0 15 10.5 25.5t24.5 10.5q15 0 25.5 -10.5t10.5 -25.5v-10q0 -49 -27.5 -83t-78.5 -44z" />
<glyph unicode="&#x201c;" horiz-adv-x="345" d="M55 473q0 50 27.5 83.5t77.5 43.5l8 -28q-33 -7 -54.5 -27.5t-22.5 -46.5q16 -1 25.5 -11.5t9.5 -23.5q0 -14 -11 -25t-25 -11t-24.5 11t-10.5 25v10zM195 473q0 50 27.5 83.5t77.5 43.5l8 -28q-33 -7 -54.5 -27.5t-21.5 -46.5q15 -1 24.5 -11.5t9.5 -23.5 q0 -14 -10.5 -25t-25.5 -11q-14 0 -24.5 11t-10.5 25v10z" />
<glyph unicode="&#x201d;" horiz-adv-x="350" d="M165 554q0 -49 -27.5 -83t-77.5 -44l-8 28q33 7 54.5 27.5t22.5 47.5q-16 1 -25 11t-9 24t10.5 24.5t24.5 10.5t24.5 -10.5t10.5 -24.5v-11zM192 455q33 7 54.5 27.5t22.5 47.5q-16 1 -25 11t-9 24t10.5 24.5t24.5 10.5t25 -10.5t11 -24.5v-11q0 -49 -27.5 -83t-78.5 -44 z" />
<glyph unicode="&#x201e;" horiz-adv-x="315" d="M20 -83q33 7 54 27.5t22 47.5q-15 1 -24.5 11t-9.5 23q0 15 10.5 25.5t25.5 10.5q14 0 24.5 -10.5t10.5 -25.5v-10q0 -49 -27.5 -83t-77.5 -44zM160 -83q33 7 54 27.5t22 47.5q-15 1 -24.5 11t-9.5 23q0 15 10.5 25.5t24.5 10.5q15 0 25.5 -10.5t10.5 -25.5v-10 q0 -49 -27.5 -83t-78.5 -44z" />
<glyph unicode="&#x2022;" horiz-adv-x="295" d="M148 284q26 0 43.5 -18t17.5 -43t-17.5 -43t-43.5 -18t-44 17.5t-18 43.5t18 43.5t44 17.5z" />
<glyph unicode="&#x2026;" horiz-adv-x="608" d="M62 31q0 17 12 29t28 12q17 0 29 -12t12 -29t-12 -28.5t-29 -11.5q-16 0 -28 11.5t-12 28.5zM264 31q0 17 11.5 29t28.5 12q16 0 28 -12t12 -29t-12 -28.5t-28 -11.5q-17 0 -28.5 11.5t-11.5 28.5zM465 31q0 17 12 29t28 12t28 -12t12 -29t-11.5 -28.5t-28.5 -11.5 t-28.5 11.5t-11.5 28.5z" />
<glyph unicode="&#x202f;" horiz-adv-x="159" />
<glyph unicode="&#x2039;" horiz-adv-x="248" d="M47 218l110 171h38v-9l-108 -169v-3l108 -172v-8h-38l-110 171v19z" />
<glyph unicode="&#x203a;" horiz-adv-x="247" d="M201 199l-110 -171h-39v8l109 172v3l-109 169v9h39l110 -171v-19z" />
<glyph unicode="&#x205f;" horiz-adv-x="199" />
<glyph unicode="&#x20ac;" horiz-adv-x="587" d="M401 212h-222q17 -82 67 -131t132 -49q40 0 74 15.5t48 30.5l14 16l23 -31q-2 -3 -6 -7.5t-18.5 -17t-31.5 -22t-45 -17t-59 -7.5q-99 0 -161 61t-81 159h-91v36h85q-3 17 -3 53q0 27 3 54h-85v35h90q20 98 81.5 158t161.5 60q49 0 89 -17.5t56 -34.5l16 -18l-24 -32 q-2 2 -5.5 6.5t-16.5 15t-27.5 18.5t-38 14.5t-48.5 6.5q-82 0 -131.5 -48t-67.5 -129h222v-35h-227q-3 -27 -3 -54q0 -37 3 -53h227v-36z" />
<glyph unicode="&#x2122;" horiz-adv-x="704" d="M271 570h-102v-289h-34v289h-101v30h237v-30zM336 281v319h32l114 -167l116 167h32v-319h-34v264l-107 -157h-13l-106 156v-263h-34z" />
<glyph unicode="&#x25fc;" horiz-adv-x="420" d="M0 420h420v-420h-420v420z" />
</font>
</defs>
</svg>
